<svg xmlns="http://www.w3.org/2000/svg" width="310" height="310" xmlns:v="https://vecta.io/nano"><path d="M143.523 4.832l2.596-.01 5.462-.007 8.243-.039C171.284 4.739 182.088 5.103 193 9c1.994.369 3.993.713 6 1v2l3.035.34c4.003.572 7.609 1.814 11.402 3.223l3.746 1.379L220 18v2h4v2l6 1v2c2.652 1.075 5.284 2.095 8 3v2l2.313.813c2.654 1.173 3.726 2.144 5.688 4.188l2.25 1.313c3.55 2.179 6.849 4.686 9.75 7.688v2l3 1v2l3 1v2h2c1.508 1.461 1.508 1.461 3.125 3.375l1.633 1.898C272 59 272 59 272 61h2c1.046 1.638 2.04 3.31 3 5l1.688 2.188C280 70 280 70 280 72h2c3 5.75 3 5.75 3 8h2l1 6h2v4h2l1 6h2c3.444 9.41 3.444 9.41 3 14h2l.402 2.371.535 3.066.527 3.059c.283 2.433.283 2.433 1.535 3.504a76.99 76.99 0 0 1 1 4.375l.5 2.398c1.349 8.704 1.666 17.368 1.625 26.164l-.01 3.194c-.085 12.749-.981 24.743-5.115 36.869-.369 1.994-.713 3.993-1 6h-2l-.375 2.563c-.653 3.59-1.577 6.946-2.625 10.438h-2l-1 7h-2l-.375 1.688c-.685 2.534-1.616 4.892-2.625 7.313h-2l-.375 2.313C284 235 284 235 282 238h-2l-1 5h-2l-.937 1.875L274 249h-2l-1 4h-2l-.828 1.785c-3.058 5.779-7.994 10.331-13.172 14.215h-2v2c-1.68 1.508-1.68 1.508-3.875 3.125l-2.18 1.633C245 277 245 277 243 277v2l-5 1v2c-2.905 2.042-4.401 3-8 3v2c-11.738 6-11.738 6-16 6v2c-8.429 3.429-8.429 3.429-13 3v2l-2.371.402-3.066.535-3.059.527c-2.433.283-2.433.283-3.504 1.535a76.99 76.99 0 0 1-4.375 1l-2.398.5c-8.894 1.378-17.739 1.658-26.727 1.625l-3.184.012c-18.088-.022-18.088-.022-22.316-2.137-1.413-.178-2.831-.319-4.25-.437-3.849-.398-7.103-1.223-10.75-2.562l-4.812-1.437c-4.766-1.417-9.481-2.96-14.187-4.562v-2l-2.375-.187c-4.978-1.116-9.15-3.416-13.625-5.812v-2l-1.75-.375c-2.273-.631-4.175-1.514-6.25-2.625v-2l-2.312-.812c-2.654-1.173-3.726-2.144-5.687-4.187l-2.25-1.312c-3.55-2.179-6.849-4.686-9.75-7.687v-2l-3-1v-2l-3-1v-2h-2c-1.508-1.461-1.508-1.461-3.125-3.375l-1.633-1.898C38 251 38 251 38 249h-2c-3-4.385-3-4.385-3-7h-2c-1.508-2.117-1.508-2.117-3.125-4.875l-1.633-2.742C25 232 25 232 25 230h-2c-3-6.625-3-6.625-3-10h-2l-1-7h-2c-3.444-9.41-3.444-9.41-3-14h-2l-1-12H7l-.184-2.117-.254-2.758-.246-2.742C6.13 176.989 6.13 176.989 5 175c-.099-2.966-.14-5.909-.133-8.875l-.003-2.667.005-5.588-.006-8.572.004-5.422-.006-2.601C4.885 135.23 4.885 135.23 6 133c.179-1.392.32-2.789.438-4.187C6.853 124.695 7.802 120.968 9 117l1-6h2l.375-2.562c.653-3.59 1.577-6.946 2.625-10.437h2l1-7h2l.375-2.187c.615-2.77 1.509-5.21 2.625-7.812h2l1-5h2v-3h2l.75-2.125c1.422-3.27 3.122-6.016 5.25-8.875h2l1-4h2v-2h2l.719-1.703c1.571-2.816 3.496-4.776 5.781-7.047l2.406-2.422C54 43 54 43 56 43l1-3c2.563-1.187 2.563-1.187 5-2v-2c1.645-1.508 1.645-1.508 3.813-3.125l2.145-1.633C70 30 70 30 73 30v-2c2.905-2.042 4.401-3 8-3v-2l6.25-3 3.516-1.687C94 17 94 17 98 17v-2c8.429-3.429 8.429-3.429 13-3v-2l2.59-.402 3.348-.535 3.34-.527c2.627-.254 2.627-.254 3.723-1.535 1.474-.208 2.955-.367 4.438-.5 5.207-.468 9.731-1.661 15.086-1.668z" fill="#131413"/><path d="M154 26h3v2h2c1.812 4.019 3.335 7.611 4 12h2c3.564 4.01 5 7.653 5 13l3 1c1.75 1.938 1.75 1.938 4 5l1.707 2.309C182.168 66.095 184.83 70.524 187 76c1.682 3.563 3.057 6.448 6.563 8.5 3.438 2.116 4.008 4.823 5.438 8.5l2 1c.625 3.063.625 3.063 1 6h2l1 5h2l.988 2.336 1.324 3.039 1.301 3.023c1.261 2.859 1.261 2.859 4.387 4.602 1.11 1.73 2.006 3.512 2.938 5.344 1.114 1.98 1.114 1.98 4.063 3.656.688 3.125.688 3.125 1 6h2c1.257 2.906 2 4.796 2 8-7.065-1.254-12.715-3.562-19-7v-2l-2.437-.25c-3.714-.782-6.661-2.053-10.078-3.652-2.603-1.15-5.227-2.063-7.922-2.973-3.752-1.329-6.957-2.863-10.312-5-7.661-4.778-17.915-10.769-27.184-8.816-7.115 2.345-7.115 2.345-13.066 6.691-1.883.746-1.883.746-4.125 1.438-8.064 2.188-8.064 2.188-14.875 6.563-2.655.565-5.291.738-8 1v2c-6.373 3.175-11.849 5.595-19 6v2c-6.625 3.125-6.625 3.125-10 2 2.004-5.423 4.774-9.746 8.156-14.426 2.304-3.217 4.446-6.529 6.582-9.859C97 113 97 113 99 112l2.09-5.176c1.399-2.804 3.681-4.648 5.91-6.824 2.962-4.104 5.103-8.248 6.992-12.937C117.182 80.534 121.133 74.309 127 70c1.358-1.903 1.358-1.903 2.438-4.062l1.277-2.395 2.539-5.18c2.398-5.03 4.607-8.534 8.746-12.363 3.595-4.371 5.813-8.77 8-14 2-3.437 2-3.437 4-6z" fill="#32fa96"/><path d="M172 131l2.539 1.223L180 135v2l2.09.551c6.047 1.618 11.998 3.391 17.91 5.449v2l1.652.516c5.641 1.813 10.977 3.992 16.348 6.484l3.457 1.59L231 158v3l-3.324 1.645-4.363 2.168-2.186 1.08c-3.083 1.534-6.078 3.077-9.021 4.869C210 172 210 172 208 172v2l-12.196 6.07c-7.416 3.641-14.524 7.739-21.651 11.909l-2.715 1.572-2.441 1.427C167 196 167 196 165 196v2c-5.208 2.657-8.13 3.467-14 2-2.402-.898-4.674-1.908-7-3v-2l-1.652-.48c-7.95-2.46-14.507-6.139-21.223-11.02-4.197-2.996-8.396-5.147-13.121-7.184-3.489-1.529-6.906-3.184-10.316-4.879l-3.426-1.691C91.02 168.011 88.036 166.07 85 164l-3.875-2.25L78 160c1.191-3.572 2.413-4.015 5.66-5.652l1.903-.911 1.932-.944c4.504-2.148 8.628-3.552 13.506-4.493 4.537-1.153 8.091-2.429 12-5 4.667-3 4.667-3 8-3v-2l2.125-.48c5.752-1.414 10.148-3.096 15.016-6.445 2.915-1.684 5.53-1.866 8.859-2.074v-2c9.152-3.051 16.667-.03 25 4z" fill="#32fc97"/><path d="M81 178l6 2v2l2.688.75c3.466 1.308 5.449 2.945 8.313 5.25l3.375 1.438c2.858 1.232 4.707 2.246 7.125 4.063 2.336 1.75 4.125 2.766 6.875 3.938 4.556 1.964 8.769 4.423 12.625 7.563v2l3.188.313c3.699.667 5.842 1.437 8.813 3.688v2l1.828.551c8.348 2.626 8.348 2.626 11.172 5.449v2c6.269-1.114 10.341-4.187 15.352-8.027 3.733-2.781 6.823-4.749 11.336-5.973 3.568-.694 3.568-.694 5.313-4 2.164-.949 2.164-.949 4.625-1.687l2.477-.762L194 200v-2c2.39-1.639 4.69-2.883 7.402-3.906 2.631-1.108 4.664-2.427 6.973-4.094 2.834-1.954 5.214-3.37 8.563-4.187 3.35-.527 3.35-.527 5.063-3.812 2.918-1.421 4.732-2 8-2-1.313 2.771-2.776 5.22-4.582 7.695l-1.557 2.144-1.673 2.286-3.512 4.828-1.83 2.51-8.971 12.412-3.195 4.43-1.352 1.875c-.961 1.319-1.946 2.62-2.944 3.911-1.484 1.863-1.484 1.863-2.196 4.16-2.684 6.216-7.386 11.079-12.187 15.75-2.067 2.385-3.103 4.26-4.281 7.227-1.653 3.914-3.934 6.988-6.594 10.273-4.114 5.195-4.114 5.195-8 10.563-1.885 2.606-3.862 4.674-6.125 6.938-1.043 1.64-2.056 3.301-3 5-3.1-.282-4.01-1.011-6.156-3.344L149.5 275.5l-1.292-1.728c-4.572-6.159-8.969-12.446-13.368-18.729-6.112-8.728-6.112-8.728-12.555-17.211C121 236 121 236 121 234l-1.937-.687C117 232 117 232 116.25 229.375L116 227l-3-1c-1.3-2.676-2.087-5.319-2.875-8.187-.791-2.91-.791-2.91-2.941-3.652-3.011-1.6-4.309-3.751-6.246-6.535l-2.035-2.898L97 202l-1.746-2.164C94 198 94 198 94 195h-2c-3-3.462-3-3.462-3-6l-1.75-.625c-3.113-1.902-4.457-4.238-6.25-7.375v-3z" fill="#32f794"/><path d="M150 112c-4.763 3.705-9.214 6.229-15 8-7.629 2.374-7.629 2.374-14 7-1.953.563-1.953.563-4.25 1a76.64 76.64 0 0 0-10.75 3l1-2h3v-2l1.898-.586 2.477-.789 2.461-.773c2.329-.75 2.329-.75 4.164-2.852a94.06 94.06 0 0 1 5.25-2l2.98-1.055 6.332-2.07c2.576-.729 2.576-.729 4.438-2.875 1.875-.887 1.875-.887 4-1.687l2.125-.824C148 111 148 111 150 112z" fill="#217e50"/><path d="M197 181l-1.793.988-2.395 1.324-2.488 1.375-5.199 3.125C183 189 183 189 180 189v2c-5.625 3-5.625 3-9 3v2l-6 2v-2l1.494-.823 6.881-3.802 2.493-1.374c5.183-2.872 10.25-5.855 15.187-9.137 2.402-1.066 3.525-.759 5.945.137z" fill="#228151"/><path d="M93 150l2 1c-2.302 2.6-4.499 3.847-7.687 5.188l-2.449 1.043L83 158c-.228 2.244-.228 2.244 2 4.125L87 164c-3.403-1.059-6.014-2.009-9-4 1.218-3.654 2.638-4.131 5.967-5.801l1.971-.949 1.959-.996L93 150z" fill="#2ac176"/><path d="M208 133c5.76.606 10.72 2.757 16 5l-1-5h2c1.257 2.906 2 4.796 2 8-7.065-1.254-12.715-3.562-19-7v-1zm-21 6l2.563.875c3.461 1.133 6.931 2.143 10.438 3.125v2l1.828.551c7.938 2.497 7.938 2.497 11.172 5.449h-5v-2l-7-1v-2h-4v-2l-7-1v-2h-3v-2z" fill="#28b16d"/><path d="M232 178c-.948 6.638-4.147 10.52-9 15l-2 1c1.548-3.347 3.491-6.247 5.625-9.25l1.914-2.703L230 180l-3-1c2-1 2-1 5-1z" fill="#1f6b45"/><path d="M213 151c4.333.645 7.867 2.189 11.813 4.063l3.52 1.66L231 158l-1 3v-2h-4v-2l-7-1v-2h-4v-2l-2-1z" fill="#28b16d"/><path d="M162 128c4.689.556 8.199 1.882 12.375 4.063l3.211 1.66L180 135c-3.097.878-4.906.994-8 0v-2l-1.625-.312c-3-.868-5.613-2.244-8.375-3.687v-1z" fill="#24945d"/><path d="M154 26h3v2h2v3l-2.25.375c-2.551.58-4.477 1.362-6.75 2.625 1.125-2.972 2.223-5.334 4-8z" fill="#26a265"/><path d="M163 273c0 3.992-1.12 6.499-3 10-2.5 1.125-2.5 1.125-5 1-1.812-1.437-1.812-1.437-3-3l1-2 5 3 .813-2.25c1.13-2.616 2.396-4.552 4.188-6.75z" fill="#1e6843"/><path d="M122 123l2 1c-2.276 2.652-3.892 3.454-7.312 4.063-3.685.717-7.147 1.666-10.687 2.938l1-2h3v-2l12-4z" fill="#1d5e3e"/><path d="M86 130l1 2-2 5 4 1c-4.625 2.125-4.625 2.125-8 1 2.75-6.75 2.75-6.75 5-9z" fill="#28b36e"/><path d="M81 178l6 2v2h-2l1.563 2.375L88 187l-1 2c-2.62-2.371-4.358-4.873-6-8v-3z" fill="#238e59"/><path d="M97 113l1 4-1.937.625c-2.412 1.27-2.412 1.27-2.812 4.5L93 125h-3c1.557-4.671 4.084-8.087 7-12z" fill="#269f63"/><path d="M189 237h1v5l-3 1-1 3c-2.062 1.188-2.062 1.188-4 2 1.761-4.003 4.261-7.603 7-11z" fill="#1e6642"/><path d="M175 118c6.302.332 10.852 3.673 16 7l-2 1c-2.443-1.075-4.768-2.198-7.125-3.437l-1.996-1.025L175 119v-1z" fill="#24905a"/><path d="M215 201l1 2c-1.782 4.652-3.519 6.82-8 9 1.779-4.044 4.395-7.461 7-11z" fill="#1e6541"/><path d="M148 198l2.063 1c3.446 1.173 6.321 1.142 9.938 1v2c-4.716.925-7.673 1.229-12-1v-3z" fill="#20754b"/><path d="M208 133c4.374.509 7.401 1.429 11 4l1 2-4.312-1.312-2.426-.738c-2.361-.991-3.601-2.03-5.262-3.949z" fill="#238956"/><path d="M139 49c.75 1.688.75 1.688 1 4-1.812 2.75-1.812 2.75-4 5h-2c1.249-3.459 2.675-6.147 5-9z" fill="#259b60"/><path d="M85 182c5.538.615 5.538.615 7.875 2.563L94 186h-8l-1-4z" fill="#2ccd7d"/><path d="M93 150l2 1c-2.068 2.797-3.144 3.027-6.687 3.688L85 155c1.648-3.296 4.677-3.776 8-5z" fill="#228553"/><path d="M112 142l2 1c-2.068 2.797-3.144 3.027-6.687 3.688L104 147c1.648-3.296 4.677-3.776 8-5z" fill="#228554"/><path d="M143 129l2 1c-2.068 2.797-3.144 3.027-6.687 3.688L135 134c1.648-3.296 4.677-3.776 8-5z" fill="#238a56"/><path d="M227 186l1 2c-4.75 4.875-4.75 4.875-7 6 1.443-3.366 3.333-5.51 6-8z" fill="#1c5639"/><path d="M230 180l-2 4h-7c1-2 1-2 3.375-3.125C227 180 227 180 230 180z" fill="#29bb72"/><path d="M118 81l1 4-1.937.813c-2.394 1.074-2.394 1.074-3.062 4.188l-1-2 5-7z" fill="#24925c"/><path d="M90 166c4.314.479 6.166 1.746 9 5-3.775-1.091-6.47-1.908-9-5z" fill="#259d61"/></svg>