<?xml version="1.0" encoding="UTF-8"?>
<svg version="1.1" xmlns="http://www.w3.org/2000/svg" width="310" height="310">
<path d="M0 0 C0.85655182 -0.0033284 1.71310364 -0.0066568 2.59561157 -0.01008606 C4.41643741 -0.0151582 6.23727257 -0.0174943 8.05810547 -0.01733398 C10.80582765 -0.01949528 13.55313153 -0.03757692 16.30078125 -0.05664062 C27.76010636 -0.09336798 38.56486915 0.27093541 49.4765625 4.16796875 C51.47025281 4.53717066 53.46935327 4.88122457 55.4765625 5.16796875 C55.4765625 5.82796875 55.4765625 6.48796875 55.4765625 7.16796875 C56.97896484 7.33619141 56.97896484 7.33619141 58.51171875 7.5078125 C62.51485497 8.0796891 66.12102701 9.321627 69.9140625 10.73046875 C71.15027344 11.18550781 72.38648438 11.64054687 73.66015625 12.109375 C74.58957031 12.45871094 75.51898438 12.80804688 76.4765625 13.16796875 C76.4765625 13.82796875 76.4765625 14.48796875 76.4765625 15.16796875 C77.7965625 15.16796875 79.1165625 15.16796875 80.4765625 15.16796875 C80.4765625 15.82796875 80.4765625 16.48796875 80.4765625 17.16796875 C82.4565625 17.49796875 84.4365625 17.82796875 86.4765625 18.16796875 C86.4765625 18.82796875 86.4765625 19.48796875 86.4765625 20.16796875 C89.12885062 21.24322069 91.76024704 22.26253026 94.4765625 23.16796875 C94.4765625 23.82796875 94.4765625 24.48796875 94.4765625 25.16796875 C95.2396875 25.43609375 96.0028125 25.70421875 96.7890625 25.98046875 C99.44319204 27.15322366 100.51510358 28.12478237 102.4765625 30.16796875 C103.2190625 30.60109375 103.9615625 31.03421875 104.7265625 31.48046875 C108.27684085 33.65904864 111.5752826 36.1663564 114.4765625 39.16796875 C114.4765625 39.82796875 114.4765625 40.48796875 114.4765625 41.16796875 C115.4665625 41.49796875 116.4565625 41.82796875 117.4765625 42.16796875 C117.4765625 42.82796875 117.4765625 43.48796875 117.4765625 44.16796875 C118.4665625 44.49796875 119.4565625 44.82796875 120.4765625 45.16796875 C120.4765625 45.82796875 120.4765625 46.48796875 120.4765625 47.16796875 C121.1365625 47.16796875 121.7965625 47.16796875 122.4765625 47.16796875 C123.984375 48.62890625 123.984375 48.62890625 125.6015625 50.54296875 C126.14039063 51.16945312 126.67921875 51.7959375 127.234375 52.44140625 C128.4765625 54.16796875 128.4765625 54.16796875 128.4765625 56.16796875 C129.1365625 56.16796875 129.7965625 56.16796875 130.4765625 56.16796875 C131.52300316 57.80587587 132.5163808 59.47804896 133.4765625 61.16796875 C134.311875 62.25078125 134.311875 62.25078125 135.1640625 63.35546875 C136.4765625 65.16796875 136.4765625 65.16796875 136.4765625 67.16796875 C137.1365625 67.16796875 137.7965625 67.16796875 138.4765625 67.16796875 C141.4765625 72.91796875 141.4765625 72.91796875 141.4765625 75.16796875 C142.1365625 75.16796875 142.7965625 75.16796875 143.4765625 75.16796875 C143.8065625 77.14796875 144.1365625 79.12796875 144.4765625 81.16796875 C145.1365625 81.16796875 145.7965625 81.16796875 146.4765625 81.16796875 C146.4765625 82.48796875 146.4765625 83.80796875 146.4765625 85.16796875 C147.1365625 85.16796875 147.7965625 85.16796875 148.4765625 85.16796875 C148.8065625 87.14796875 149.1365625 89.12796875 149.4765625 91.16796875 C150.1365625 91.16796875 150.7965625 91.16796875 151.4765625 91.16796875 C154.92075384 100.57799153 154.92075384 100.57799153 154.4765625 105.16796875 C155.1365625 105.16796875 155.7965625 105.16796875 156.4765625 105.16796875 C156.60933594 105.95042969 156.74210937 106.73289062 156.87890625 107.5390625 C157.05550781 108.55097656 157.23210937 109.56289062 157.4140625 110.60546875 C157.58808594 111.61480469 157.76210938 112.62414062 157.94140625 113.6640625 C158.22407347 116.09671255 158.22407347 116.09671255 159.4765625 117.16796875 C159.85756314 118.61458056 160.18051562 120.07661154 160.4765625 121.54296875 C160.6415625 122.33445312 160.8065625 123.1259375 160.9765625 123.94140625 C162.32536773 132.64541497 162.64246235 141.30918074 162.6015625 150.10546875 C162.59817871 151.15943848 162.59479492 152.2134082 162.59130859 153.29931641 C162.50643598 166.0479732 161.61043586 178.04194024 157.4765625 190.16796875 C157.10736059 192.16165906 156.76330668 194.16075952 156.4765625 196.16796875 C155.8165625 196.16796875 155.1565625 196.16796875 154.4765625 196.16796875 C154.3528125 197.01359375 154.2290625 197.85921875 154.1015625 198.73046875 C153.44885923 202.32033673 152.52408787 205.6762175 151.4765625 209.16796875 C150.8165625 209.16796875 150.1565625 209.16796875 149.4765625 209.16796875 C149.1465625 211.47796875 148.8165625 213.78796875 148.4765625 216.16796875 C147.8165625 216.16796875 147.1565625 216.16796875 146.4765625 216.16796875 C146.3528125 216.72484375 146.2290625 217.28171875 146.1015625 217.85546875 C145.41679395 220.38911239 144.48522487 222.74717907 143.4765625 225.16796875 C142.8165625 225.16796875 142.1565625 225.16796875 141.4765625 225.16796875 C141.3528125 225.93109375 141.2290625 226.69421875 141.1015625 227.48046875 C140.4765625 230.16796875 140.4765625 230.16796875 138.4765625 233.16796875 C137.8165625 233.16796875 137.1565625 233.16796875 136.4765625 233.16796875 C136.1465625 234.81796875 135.8165625 236.46796875 135.4765625 238.16796875 C134.8165625 238.16796875 134.1565625 238.16796875 133.4765625 238.16796875 C133.1671875 238.78671875 132.8578125 239.40546875 132.5390625 240.04296875 C131.8515625 241.41796875 131.1640625 242.79296875 130.4765625 244.16796875 C129.8165625 244.16796875 129.1565625 244.16796875 128.4765625 244.16796875 C128.1465625 245.48796875 127.8165625 246.80796875 127.4765625 248.16796875 C126.8165625 248.16796875 126.1565625 248.16796875 125.4765625 248.16796875 C125.20328125 248.75707031 124.93 249.34617188 124.6484375 249.953125 C121.59068904 255.73226959 116.65465098 260.28440239 111.4765625 264.16796875 C110.8165625 264.16796875 110.1565625 264.16796875 109.4765625 264.16796875 C109.4765625 264.82796875 109.4765625 265.48796875 109.4765625 266.16796875 C107.796875 267.67578125 107.796875 267.67578125 105.6015625 269.29296875 C104.88226563 269.83179688 104.16296875 270.370625 103.421875 270.92578125 C101.4765625 272.16796875 101.4765625 272.16796875 99.4765625 272.16796875 C99.4765625 272.82796875 99.4765625 273.48796875 99.4765625 274.16796875 C97.8265625 274.49796875 96.1765625 274.82796875 94.4765625 275.16796875 C94.4765625 275.82796875 94.4765625 276.48796875 94.4765625 277.16796875 C91.57107368 279.2096636 90.07514204 280.16796875 86.4765625 280.16796875 C86.4765625 280.82796875 86.4765625 281.48796875 86.4765625 282.16796875 C74.73869842 288.16796875 74.73869842 288.16796875 70.4765625 288.16796875 C70.4765625 288.82796875 70.4765625 289.48796875 70.4765625 290.16796875 C62.04799107 293.59654018 62.04799107 293.59654018 57.4765625 293.16796875 C57.4765625 293.82796875 57.4765625 294.48796875 57.4765625 295.16796875 C56.69410156 295.30074219 55.91164062 295.43351562 55.10546875 295.5703125 C54.09355469 295.74691406 53.08164063 295.92351562 52.0390625 296.10546875 C51.02972656 296.27949219 50.02039063 296.45351563 48.98046875 296.6328125 C46.5478187 296.91547972 46.5478187 296.91547972 45.4765625 298.16796875 C44.02995069 298.54896939 42.56791971 298.87192187 41.1015625 299.16796875 C40.31007812 299.33296875 39.51859375 299.49796875 38.703125 299.66796875 C29.8089749 301.04623898 20.96417554 301.32605199 11.9765625 301.29296875 C10.40068359 301.29876953 10.40068359 301.29876953 8.79296875 301.3046875 C-9.29471616 301.28232942 -9.29471616 301.28232942 -13.5234375 299.16796875 C-14.93641844 298.98993315 -16.35420386 298.84873822 -17.7734375 298.73046875 C-21.62283781 298.33267699 -24.8762102 297.50776653 -28.5234375 296.16796875 C-30.12520251 295.68083403 -31.72964813 295.2024707 -33.3359375 294.73046875 C-38.10149195 293.31309596 -42.81735694 291.7707643 -47.5234375 290.16796875 C-47.5234375 289.50796875 -47.5234375 288.84796875 -47.5234375 288.16796875 C-48.3071875 288.10609375 -49.0909375 288.04421875 -49.8984375 287.98046875 C-54.87632543 286.86473525 -59.04797444 284.56490648 -63.5234375 282.16796875 C-63.5234375 281.50796875 -63.5234375 280.84796875 -63.5234375 280.16796875 C-64.1009375 280.04421875 -64.6784375 279.92046875 -65.2734375 279.79296875 C-67.54679517 279.16148051 -69.4487904 278.27938684 -71.5234375 277.16796875 C-71.5234375 276.50796875 -71.5234375 275.84796875 -71.5234375 275.16796875 C-72.2865625 274.89984375 -73.0496875 274.63171875 -73.8359375 274.35546875 C-76.49006704 273.18271384 -77.56197858 272.21115513 -79.5234375 270.16796875 C-80.2659375 269.73484375 -81.0084375 269.30171875 -81.7734375 268.85546875 C-85.32371585 266.67688886 -88.6221576 264.1695811 -91.5234375 261.16796875 C-91.5234375 260.50796875 -91.5234375 259.84796875 -91.5234375 259.16796875 C-92.5134375 258.83796875 -93.5034375 258.50796875 -94.5234375 258.16796875 C-94.5234375 257.50796875 -94.5234375 256.84796875 -94.5234375 256.16796875 C-95.5134375 255.83796875 -96.5034375 255.50796875 -97.5234375 255.16796875 C-97.5234375 254.50796875 -97.5234375 253.84796875 -97.5234375 253.16796875 C-98.1834375 253.16796875 -98.8434375 253.16796875 -99.5234375 253.16796875 C-101.03125 251.70703125 -101.03125 251.70703125 -102.6484375 249.79296875 C-103.18726563 249.16648438 -103.72609375 248.54 -104.28125 247.89453125 C-105.5234375 246.16796875 -105.5234375 246.16796875 -105.5234375 244.16796875 C-106.1834375 244.16796875 -106.8434375 244.16796875 -107.5234375 244.16796875 C-110.5234375 239.78335337 -110.5234375 239.78335337 -110.5234375 237.16796875 C-111.1834375 237.16796875 -111.8434375 237.16796875 -112.5234375 237.16796875 C-114.03125 235.05078125 -114.03125 235.05078125 -115.6484375 232.29296875 C-116.18726562 231.38804687 -116.72609375 230.483125 -117.28125 229.55078125 C-118.5234375 227.16796875 -118.5234375 227.16796875 -118.5234375 225.16796875 C-119.1834375 225.16796875 -119.8434375 225.16796875 -120.5234375 225.16796875 C-123.5234375 218.54296875 -123.5234375 218.54296875 -123.5234375 215.16796875 C-124.1834375 215.16796875 -124.8434375 215.16796875 -125.5234375 215.16796875 C-125.8534375 212.85796875 -126.1834375 210.54796875 -126.5234375 208.16796875 C-127.1834375 208.16796875 -127.8434375 208.16796875 -128.5234375 208.16796875 C-131.96762884 198.75794597 -131.96762884 198.75794597 -131.5234375 194.16796875 C-132.1834375 194.16796875 -132.8434375 194.16796875 -133.5234375 194.16796875 C-134.0184375 188.22796875 -134.0184375 188.22796875 -134.5234375 182.16796875 C-135.1834375 182.16796875 -135.8434375 182.16796875 -136.5234375 182.16796875 C-136.58402344 181.46929687 -136.64460937 180.770625 -136.70703125 180.05078125 C-136.79082031 179.14070312 -136.87460938 178.230625 -136.9609375 177.29296875 C-137.04214844 176.38804687 -137.12335938 175.483125 -137.20703125 174.55078125 C-137.39333035 172.15686014 -137.39333035 172.15686014 -138.5234375 170.16796875 C-138.6226876 167.20170164 -138.66324565 164.25940288 -138.65625 161.29296875 C-138.65720673 160.4127002 -138.65816345 159.53243164 -138.65914917 158.62548828 C-138.65983026 156.76269459 -138.65798093 154.89989852 -138.65380859 153.03710938 C-138.64845934 150.17963347 -138.65375599 147.32231475 -138.66015625 144.46484375 C-138.65949546 142.65755174 -138.65821427 140.85025982 -138.65625 139.04296875 C-138.65827423 138.18461426 -138.66029846 137.32625977 -138.66238403 136.44189453 C-138.63839622 130.3978862 -138.63839622 130.3978862 -137.5234375 128.16796875 C-137.34482814 126.7759498 -137.20388043 125.37893488 -137.0859375 123.98046875 C-136.67019228 119.86261129 -135.72141019 116.1362533 -134.5234375 112.16796875 C-134.16073162 110.17308641 -133.81703051 108.17418765 -133.5234375 106.16796875 C-132.8634375 106.16796875 -132.2034375 106.16796875 -131.5234375 106.16796875 C-131.3378125 104.89953125 -131.3378125 104.89953125 -131.1484375 103.60546875 C-130.49573423 100.01560077 -129.57096287 96.65972 -128.5234375 93.16796875 C-127.8634375 93.16796875 -127.2034375 93.16796875 -126.5234375 93.16796875 C-126.1934375 90.85796875 -125.8634375 88.54796875 -125.5234375 86.16796875 C-124.8634375 86.16796875 -124.2034375 86.16796875 -123.5234375 86.16796875 C-123.3996875 85.44609375 -123.2759375 84.72421875 -123.1484375 83.98046875 C-122.5329444 81.21074981 -121.63899376 78.77093335 -120.5234375 76.16796875 C-119.8634375 76.16796875 -119.2034375 76.16796875 -118.5234375 76.16796875 C-118.1934375 74.51796875 -117.8634375 72.86796875 -117.5234375 71.16796875 C-116.8634375 71.16796875 -116.2034375 71.16796875 -115.5234375 71.16796875 C-115.5234375 70.17796875 -115.5234375 69.18796875 -115.5234375 68.16796875 C-114.8634375 68.16796875 -114.2034375 68.16796875 -113.5234375 68.16796875 C-113.2759375 67.46671875 -113.0284375 66.76546875 -112.7734375 66.04296875 C-111.35163512 62.77282327 -109.65097462 60.02684675 -107.5234375 57.16796875 C-106.8634375 57.16796875 -106.2034375 57.16796875 -105.5234375 57.16796875 C-105.1934375 55.84796875 -104.8634375 54.52796875 -104.5234375 53.16796875 C-103.8634375 53.16796875 -103.2034375 53.16796875 -102.5234375 53.16796875 C-102.5234375 52.50796875 -102.5234375 51.84796875 -102.5234375 51.16796875 C-101.8634375 51.16796875 -101.2034375 51.16796875 -100.5234375 51.16796875 C-100.28625 50.6059375 -100.0490625 50.04390625 -99.8046875 49.46484375 C-98.23396053 46.64902833 -96.30872286 44.68841459 -94.0234375 42.41796875 C-93.229375 41.61875 -92.4353125 40.81953125 -91.6171875 39.99609375 C-89.5234375 38.16796875 -89.5234375 38.16796875 -87.5234375 38.16796875 C-87.1934375 37.17796875 -86.8634375 36.18796875 -86.5234375 35.16796875 C-83.9609375 33.98046875 -83.9609375 33.98046875 -81.5234375 33.16796875 C-81.5234375 32.50796875 -81.5234375 31.84796875 -81.5234375 31.16796875 C-79.87890625 29.66015625 -79.87890625 29.66015625 -77.7109375 28.04296875 C-77.00324219 27.50414063 -76.29554687 26.9653125 -75.56640625 26.41015625 C-73.5234375 25.16796875 -73.5234375 25.16796875 -70.5234375 25.16796875 C-70.5234375 24.50796875 -70.5234375 23.84796875 -70.5234375 23.16796875 C-67.61794868 21.1262739 -66.12201704 20.16796875 -62.5234375 20.16796875 C-62.5234375 19.50796875 -62.5234375 18.84796875 -62.5234375 18.16796875 C-60.4446255 17.15860339 -58.3602013 16.16079029 -56.2734375 15.16796875 C-55.11328125 14.61109375 -53.953125 14.05421875 -52.7578125 13.48046875 C-49.5234375 12.16796875 -49.5234375 12.16796875 -45.5234375 12.16796875 C-45.5234375 11.50796875 -45.5234375 10.84796875 -45.5234375 10.16796875 C-37.09486607 6.73939732 -37.09486607 6.73939732 -32.5234375 7.16796875 C-32.5234375 6.50796875 -32.5234375 5.84796875 -32.5234375 5.16796875 C-31.24146484 4.96880859 -31.24146484 4.96880859 -29.93359375 4.765625 C-28.82886719 4.58902344 -27.72414063 4.41242187 -26.5859375 4.23046875 C-25.48378906 4.05644531 -24.38164063 3.88242188 -23.24609375 3.703125 C-20.61916821 3.44951739 -20.61916821 3.44951739 -19.5234375 2.16796875 C-18.04947011 1.96028646 -16.5685249 1.80080858 -15.0859375 1.66796875 C-9.87920572 1.19994792 -5.35456942 0.00720533 0 0 Z " fill="#131413" transform="translate(143.5234375,4.83203125)"/>
<path d="M0 0 C0.99 0 1.98 0 3 0 C3 0.66 3 1.32 3 2 C3.66 2 4.32 2 5 2 C6.81242323 6.0188515 8.33501617 9.61110675 9 14 C9.66 14 10.32 14 11 14 C14.56449622 18.01005825 16 21.65299041 16 27 C17.485 27.495 17.485 27.495 19 28 C20.75 29.9375 20.75 29.9375 23 33 C23.56332031 33.76183594 24.12664062 34.52367187 24.70703125 35.30859375 C28.16781537 40.09540463 30.8304099 44.52436784 33 50 C34.68166727 53.56335664 36.05743636 56.44825543 39.5625 58.5 C43.00083407 60.61589789 43.5701322 63.32319708 45 67 C45.66 67.33 46.32 67.66 47 68 C47.625 71.0625 47.625 71.0625 48 74 C48.66 74 49.32 74 50 74 C50.33 75.65 50.66 77.3 51 79 C51.66 79 52.32 79 53 79 C53.32613281 79.77085938 53.65226562 80.54171875 53.98828125 81.3359375 C54.42527344 82.33882813 54.86226563 83.34171875 55.3125 84.375 C55.74175781 85.37273437 56.17101562 86.37046875 56.61328125 87.3984375 C57.8738406 90.25774508 57.8738406 90.25774508 61 92 C62.11006139 93.73038982 63.00617927 95.51215257 63.9375 97.34375 C65.0515935 99.32387593 65.0515935 99.32387593 68 101 C68.6875 104.125 68.6875 104.125 69 107 C69.66 107 70.32 107 71 107 C72.25664978 109.90600261 73 111.79604584 73 115 C65.93463111 113.74646681 60.28543527 111.43796251 54 108 C54 107.34 54 106.68 54 106 C53.195625 105.9175 52.39125 105.835 51.5625 105.75 C47.8482712 104.96805709 44.9010185 103.69705815 41.484375 102.09765625 C38.88164788 100.94770921 36.257827 100.03486321 33.5625 99.125 C29.81018591 97.7963798 26.60543559 96.2617948 23.25 94.125 C15.58859555 89.34731397 5.33482024 83.35642306 -3.93359375 85.30859375 C-11.04856207 87.65379649 -11.04856207 87.65379649 -17 92 C-18.8828125 92.74609375 -18.8828125 92.74609375 -21.125 93.4375 C-29.18913571 95.62534378 -29.18913571 95.62534378 -36 100 C-38.65537372 100.56520003 -41.29144713 100.73788198 -44 101 C-44 101.66 -44 102.32 -44 103 C-50.37295696 106.17476348 -55.84937514 108.59524765 -63 109 C-63 109.66 -63 110.32 -63 111 C-69.625 114.125 -69.625 114.125 -73 113 C-70.99570774 107.57662093 -68.22603857 103.253529 -64.84375 98.57421875 C-62.5394029 95.35692057 -60.39808916 92.04524036 -58.26171875 88.71484375 C-57 87 -57 87 -55 86 C-54.30327777 84.27478305 -53.60658915 82.54955251 -52.91015625 80.82421875 C-51.51108385 78.02006935 -49.22956491 76.17648003 -47 74 C-44.03750354 69.89607107 -41.89662175 65.75195744 -40.0078125 61.0625 C-36.81791968 54.53434726 -32.86652239 48.30935904 -27 44 C-25.6417187 42.09741508 -25.6417187 42.09741508 -24.5625 39.9375 C-24.14097656 39.14730469 -23.71945313 38.35710937 -23.28515625 37.54296875 C-22.41786044 35.82683023 -21.5718906 34.09976995 -20.74609375 32.36328125 C-18.3476259 27.33326561 -16.13951604 23.82905233 -12 20 C-8.40510171 15.62868877 -6.18706912 11.22994789 -4 6 C-2 2.5625 -2 2.5625 0 0 Z " fill="#32FA96" transform="translate(154,26)"/>
<path d="M0 0 C0.83789062 0.40347656 1.67578125 0.80695313 2.5390625 1.22265625 C4.37081652 2.125588 6.1875495 3.05891993 8 4 C8 4.66 8 5.32 8 6 C8.68964844 6.18175781 9.37929687 6.36351562 10.08984375 6.55078125 C16.13703115 8.16834166 22.08816832 9.94180675 28 12 C28 12.66 28 13.32 28 14 C28.54527344 14.17015625 29.09054688 14.3403125 29.65234375 14.515625 C35.2929892 16.32834525 40.62944146 18.50799504 46 21 C47.14082031 21.52464844 48.28164062 22.04929688 49.45703125 22.58984375 C52.64008045 24.05549479 55.82085694 25.52589966 59 27 C59 27.99 59 28.98 59 30 C57.35451172 30.81404297 57.35451172 30.81404297 55.67578125 31.64453125 C54.22130061 32.3670797 52.7668765 33.08974196 51.3125 33.8125 C50.59126953 34.16892578 49.87003906 34.52535156 49.12695312 34.89257812 C46.04436362 36.426835 43.04926524 37.97001535 40.10546875 39.76171875 C38 41 38 41 36 41 C36 41.66 36 42.32 36 43 C26 48 26 48 23.80371094 49.06958008 C16.38811821 52.71061557 9.28007637 56.80844984 2.15234375 60.97851562 C1.25644531 61.49736328 0.36054688 62.01621094 -0.5625 62.55078125 C-1.36816406 63.02169189 -2.17382812 63.49260254 -3.00390625 63.9777832 C-5 65 -5 65 -7 65 C-7 65.66 -7 66.32 -7 67 C-12.20820997 69.65724998 -15.13049695 70.46737576 -21 69 C-23.40207749 68.1021589 -25.67448358 67.09156893 -28 66 C-28 65.34 -28 64.68 -28 64 C-28.81791016 63.76216797 -28.81791016 63.76216797 -29.65234375 63.51953125 C-37.60220989 61.05982908 -44.15892411 57.38056068 -50.875 52.5 C-55.07182198 49.50411477 -59.27097182 47.35298085 -63.99609375 45.31640625 C-67.48479979 43.78754548 -70.90256247 42.13255092 -74.3125 40.4375 C-75.44300781 39.87933594 -76.57351562 39.32117188 -77.73828125 38.74609375 C-80.98037469 37.010506 -83.96365074 35.07042902 -87 33 C-88.28201972 32.23362659 -89.57180696 31.4797881 -90.875 30.75 C-92.421875 29.88375 -92.421875 29.88375 -94 29 C-92.80942455 25.42827364 -91.58726612 24.98510894 -88.34008789 23.34838867 C-87.71223389 23.04779541 -87.08437988 22.74720215 -86.4375 22.4375 C-85.48121704 21.97017456 -85.48121704 21.97017456 -84.50561523 21.4934082 C-80.00137541 19.34583157 -75.87755406 17.94128236 -71 17 C-66.46300871 15.84652764 -62.90855473 14.57141758 -59 12 C-54.33333333 9 -54.33333333 9 -51 9 C-51 8.34 -51 7.68 -51 7 C-50.29875 6.84144531 -49.5975 6.68289062 -48.875 6.51953125 C-43.1232865 5.10504736 -38.72731371 3.42344105 -33.859375 0.07421875 C-30.94406129 -1.61004862 -28.32960773 -1.79189952 -25 -2 C-25 -2.66 -25 -3.32 -25 -4 C-15.84755901 -7.05081366 -8.33312801 -4.02958108 0 0 Z " fill="#32FC97" transform="translate(172,131)"/>
<path d="M0 0 C1.98 0.66 3.96 1.32 6 2 C6 2.66 6 3.32 6 4 C6.886875 4.2475 7.77375 4.495 8.6875 4.75 C12.15374526 6.05801708 14.13619959 7.69498992 17 10 C18.670625 10.7115625 18.670625 10.7115625 20.375 11.4375 C23.23348082 12.6696038 25.08170007 13.68356395 27.5 15.5 C29.83648757 17.24976958 31.62491578 18.26616783 34.375 19.4375 C38.93088879 21.40124517 43.14360406 23.86066634 47 27 C47 27.66 47 28.32 47 29 C48.051875 29.103125 49.10375 29.20625 50.1875 29.3125 C53.88628113 29.97949332 56.02986811 30.74990008 59 33 C59 33.66 59 34.32 59 35 C59.60328125 35.18175781 60.2065625 35.36351562 60.828125 35.55078125 C69.17647059 38.17647059 69.17647059 38.17647059 72 41 C72 41.66 72 42.32 72 43 C78.2687723 41.88555159 82.34120651 38.81297208 87.3515625 34.97265625 C91.08471008 32.19206698 94.17467239 30.22381766 98.6875 29 C102.25539113 28.30616669 102.25539113 28.30616669 104 25 C106.1640625 24.05078125 106.1640625 24.05078125 108.625 23.3125 C109.85089844 22.93544922 109.85089844 22.93544922 111.1015625 22.55078125 C111.72804688 22.36902344 112.35453125 22.18726563 113 22 C113 21.34 113 20.68 113 20 C115.39021623 18.36099459 117.68971441 17.11705082 120.40234375 16.09375 C123.0333629 14.98595246 125.06609312 13.66708078 127.375 12 C130.20867301 10.04623213 132.58929017 8.63032996 135.9375 7.8125 C139.28790809 7.2852866 139.28790809 7.2852866 141 4 C143.9178052 2.57850516 145.73204297 2 149 2 C147.6865119 4.77075248 146.22447036 7.21979592 144.41796875 9.6953125 C143.64718994 10.75661377 143.64718994 10.75661377 142.86083984 11.83935547 C142.3086377 12.59361816 141.75643555 13.34788086 141.1875 14.125 C140.01682749 15.73430256 138.8462577 17.34367984 137.67578125 18.953125 C137.0720166 19.78134766 136.46825195 20.60957031 135.84619141 21.46289062 C132.84250779 25.59067165 129.85992503 29.7336453 126.875 33.875 C125.81033051 35.35187595 124.74525474 36.82845915 123.6796875 38.3046875 C123.23351074 38.92327637 122.78733398 39.54186523 122.32763672 40.17919922 C121.3662173 41.49774759 120.3816421 42.79951379 119.38330078 44.09033203 C117.8995918 45.9532458 117.8995918 45.9532458 117.1875 48.25 C114.50323573 54.46619095 109.80108283 59.32867617 105 64 C102.93316976 66.38480413 101.89675325 68.26000554 100.71875 71.2265625 C99.06582483 75.14021036 96.78477245 78.21471971 94.125 81.5 C90.01069894 86.6953694 90.01069894 86.6953694 86.125 92.0625 C84.23958594 94.66880767 82.26317266 96.73682734 80 99 C78.95650161 100.63978318 77.94392019 102.30094366 77 104 C73.90013928 103.71819448 72.98970407 102.98880877 70.84375 100.65625 C70.0703125 99.6146875 69.296875 98.573125 68.5 97.5 C68.07348145 96.92975098 67.64696289 96.35950195 67.20751953 95.77197266 C62.63583072 89.61328061 58.2383585 83.3258464 53.83984375 77.04296875 C47.72820805 68.31468051 47.72820805 68.31468051 41.28515625 59.83203125 C40 58 40 58 40 56 C39.360625 55.773125 38.72125 55.54625 38.0625 55.3125 C36 54 36 54 35.25 51.375 C35.1675 50.59125 35.085 49.8075 35 49 C34.01 48.67 33.02 48.34 32 48 C30.70043281 45.32442049 29.91255308 42.68144338 29.125 39.8125 C28.3343782 36.90220498 28.3343782 36.90220498 26.18359375 36.16015625 C23.17216596 34.56016689 21.87459214 32.40933668 19.9375 29.625 C19.26589844 28.66851562 18.59429687 27.71203125 17.90234375 26.7265625 C17.27457031 25.82679688 16.64679688 24.92703125 16 24 C15.42378906 23.28585938 14.84757812 22.57171875 14.25390625 21.8359375 C13 20 13 20 13 17 C12.34 17 11.68 17 11 17 C8 13.53846154 8 13.53846154 8 11 C7.4225 10.79375 6.845 10.5875 6.25 10.375 C3.136873 8.4725335 1.79260061 6.13705107 0 3 C0 2.01 0 1.02 0 0 Z " fill="#32F794" transform="translate(81,178)"/>
<path d="M0 0 C-4.76333697 3.70481764 -9.21389162 6.22874233 -15 8 C-22.62880449 10.37443963 -22.62880449 10.37443963 -29 15 C-30.953125 15.5625 -30.953125 15.5625 -33.25 16 C-36.945407 16.75221532 -40.44407934 17.72351566 -44 19 C-43.67 18.34 -43.34 17.68 -43 17 C-42.01 17 -41.02 17 -40 17 C-40 16.34 -40 15.68 -40 15 C-39.37351562 14.80664062 -38.74703125 14.61328125 -38.1015625 14.4140625 C-37.28429687 14.15367188 -36.46703125 13.89328125 -35.625 13.625 C-34.81289062 13.36976562 -34.00078125 13.11453125 -33.1640625 12.8515625 C-30.83540815 12.10145717 -30.83540815 12.10145717 -29 10 C-27.27237274 9.27733239 -25.51769875 8.61821159 -23.75 8 C-22.76644531 7.65195313 -21.78289062 7.30390625 -20.76953125 6.9453125 C-18.66794912 6.22798827 -16.55505511 5.54370161 -14.4375 4.875 C-11.86152669 4.14593914 -11.86152669 4.14593914 -10 2 C-8.125 1.11328125 -8.125 1.11328125 -6 0.3125 C-4.948125 -0.09548828 -4.948125 -0.09548828 -3.875 -0.51171875 C-2 -1 -2 -1 0 0 Z " fill="#217E50" transform="translate(150,112)"/>
<path d="M0 0 C-0.59167969 0.32613281 -1.18335938 0.65226563 -1.79296875 0.98828125 C-2.58316406 1.42527344 -3.37335938 1.86226562 -4.1875 2.3125 C-5.00863281 2.76625 -5.82976562 3.22 -6.67578125 3.6875 C-8.43647235 4.68177262 -10.16451183 5.73414876 -11.875 6.8125 C-14 8 -14 8 -17 8 C-17 8.66 -17 9.32 -17 10 C-22.625 13 -22.625 13 -26 13 C-26 13.66 -26 14.32 -26 15 C-27.98 15.66 -29.96 16.32 -32 17 C-32 16.34 -32 15.68 -32 15 C-31.50709473 14.72849121 -31.01418945 14.45698242 -30.50634766 14.17724609 C-28.21150785 12.911737 -25.91820819 11.64346322 -23.625 10.375 C-22.80241699 9.9214917 -21.97983398 9.4679834 -21.13232422 9.00073242 C-15.94917869 6.12910013 -10.88227851 3.14574431 -5.9453125 -0.13671875 C-3.54379524 -1.20245232 -2.41986125 -0.89524015 0 0 Z " fill="#228151" transform="translate(197,181)"/>
<path d="M0 0 C0.66 0.33 1.32 0.66 2 1 C-0.3024119 3.60045875 -2.49896677 4.84739183 -5.6875 6.1875 C-6.49574219 6.53167969 -7.30398437 6.87585938 -8.13671875 7.23046875 C-8.75160156 7.48441406 -9.36648437 7.73835937 -10 8 C-10.2284549 10.24362573 -10.2284549 10.24362573 -8 12.125 C-7.34 12.74375 -6.68 13.3625 -6 14 C-9.40312738 12.94124926 -12.01353231 11.99097846 -15 10 C-13.7819075 6.34572251 -12.36175201 5.86868864 -9.03320312 4.19921875 C-8.05770508 3.72935547 -8.05770508 3.72935547 -7.0625 3.25 C-6.41603516 2.92128906 -5.76957031 2.59257812 -5.10351562 2.25390625 C-3.43499444 1.43264037 -1.71939715 0.70860004 0 0 Z " fill="#2AC176" transform="translate(93,150)"/>
<path d="M0 0 C5.76044212 0.60636233 10.72014369 2.75658279 16 5 C15.67 3.35 15.34 1.7 15 0 C15.66 0 16.32 0 17 0 C18.25664978 2.90600261 19 4.79604584 19 8 C11.93463111 6.74646681 6.28543527 4.43796251 0 1 C0 0.67 0 0.34 0 0 Z " fill="#28B16D" transform="translate(208,133)"/>
<path d="M0 0 C1.2684375 0.433125 1.2684375 0.433125 2.5625 0.875 C6.02361041 2.00772704 9.49372557 3.01824316 13 4 C13 4.66 13 5.32 13 6 C13.60328125 6.18175781 14.2065625 6.36351562 14.828125 6.55078125 C22.76625659 9.04745167 22.76625659 9.04745167 26 12 C24.35 12 22.7 12 21 12 C21 11.34 21 10.68 21 10 C18.69 9.67 16.38 9.34 14 9 C14 8.34 14 7.68 14 7 C12.68 7 11.36 7 10 7 C10 6.34 10 5.68 10 5 C7.69 4.67 5.38 4.34 3 4 C3 3.34 3 2.68 3 2 C2.01 2 1.02 2 0 2 C0 1.34 0 0.68 0 0 Z " fill="#28B16D" transform="translate(187,139)"/>
<path d="M0 0 C-0.94827412 6.63791881 -4.14690259 10.52021778 -9 15 C-9.99 15.495 -9.99 15.495 -11 16 C-9.45158425 12.65291949 -7.50894136 9.75332488 -5.375 6.75 C-4.74335938 5.85796875 -4.11171875 4.9659375 -3.4609375 4.046875 C-2.73777344 3.03367188 -2.73777344 3.03367188 -2 2 C-2.99 1.67 -3.98 1.34 -5 1 C-3 0 -3 0 0 0 Z " fill="#1F6B45" transform="translate(232,178)"/>
<path d="M0 0 C4.33304076 0.64465202 7.86672065 2.18925122 11.8125 4.0625 C12.97394531 4.61035156 14.13539063 5.15820312 15.33203125 5.72265625 C16.21246094 6.14417969 17.09289062 6.56570312 18 7 C17.67 7.99 17.34 8.98 17 10 C17 9.34 17 8.68 17 8 C15.68 8 14.36 8 13 8 C13 7.34 13 6.68 13 6 C10.69 5.67 8.38 5.34 6 5 C6 4.34 6 3.68 6 3 C4.68 3 3.36 3 2 3 C2 2.34 2 1.68 2 1 C1.34 0.67 0.68 0.34 0 0 Z " fill="#28B16D" transform="translate(213,151)"/>
<path d="M0 0 C4.6889493 0.55619669 8.19924267 1.88182673 12.375 4.0625 C13.43460938 4.61035156 14.49421875 5.15820312 15.5859375 5.72265625 C16.38257813 6.14417969 17.17921875 6.56570312 18 7 C14.90279155 7.87840996 13.09354597 7.99435406 10 7 C10 6.34 10 5.68 10 5 C9.46375 4.896875 8.9275 4.79375 8.375 4.6875 C5.37497956 3.81907303 2.7620465 2.44379704 0 1 C0 0.67 0 0.34 0 0 Z " fill="#24945D" transform="translate(162,128)"/>
<path d="M0 0 C0.99 0 1.98 0 3 0 C3 0.66 3 1.32 3 2 C3.66 2 4.32 2 5 2 C5 2.99 5 3.98 5 5 C4.2575 5.12375 3.515 5.2475 2.75 5.375 C0.19858515 5.95486701 -1.7267573 6.73708739 -4 8 C-2.87548273 5.0280615 -1.77706209 2.66559313 0 0 Z " fill="#26A265" transform="translate(154,26)"/>
<path d="M0 0 C0 3.9919694 -1.11957103 6.49851158 -3 10 C-5.5 11.125 -5.5 11.125 -8 11 C-9.8125 9.5625 -9.8125 9.5625 -11 8 C-10.67 7.34 -10.34 6.68 -10 6 C-8.35 6.99 -6.7 7.98 -5 9 C-4.5978125 7.88625 -4.5978125 7.88625 -4.1875 6.75 C-3.05770579 4.13363446 -1.79106798 2.19812889 0 0 Z " fill="#1E6843" transform="translate(163,273)"/>
<path d="M0 0 C0.66 0.33 1.32 0.66 2 1 C-0.27617499 3.65192451 -1.89245447 4.45409812 -5.3125 5.0625 C-8.99737787 5.77900403 -12.45908033 6.72890063 -16 8 C-15.67 7.34 -15.34 6.68 -15 6 C-14.01 6 -13.02 6 -12 6 C-12 5.34 -12 4.68 -12 4 C-8 2.66666667 -4 1.33333333 0 0 Z " fill="#1D5E3E" transform="translate(122,123)"/>
<path d="M0 0 C0.33 0.66 0.66 1.32 1 2 C0.0625 4.625 0.0625 4.625 -1 7 C0.32 7.33 1.64 7.66 3 8 C-1.625 10.125 -1.625 10.125 -5 9 C-2.25 2.25 -2.25 2.25 0 0 Z " fill="#28B36E" transform="translate(86,130)"/>
<path d="M0 0 C1.98 0.66 3.96 1.32 6 2 C6 2.66 6 3.32 6 4 C5.34 4 4.68 4 4 4 C4.515625 4.78375 5.03125 5.5675 5.5625 6.375 C6.036875 7.24125 6.51125 8.1075 7 9 C6.67 9.66 6.34 10.32 6 11 C3.37997275 8.62949916 1.64180091 6.12723983 0 3 C0 2.01 0 1.02 0 0 Z " fill="#238E59" transform="translate(81,178)"/>
<path d="M0 0 C0.33 1.32 0.66 2.64 1 4 C0.360625 4.20625 -0.27875 4.4125 -0.9375 4.625 C-3.34925077 5.89538209 -3.34925077 5.89538209 -3.75 9.125 C-3.8325 10.07375 -3.915 11.0225 -4 12 C-4.99 12 -5.98 12 -7 12 C-5.44298069 7.32894208 -2.91552627 3.91294315 0 0 Z " fill="#269F63" transform="translate(97,113)"/>
<path d="M0 0 C0.33 0 0.66 0 1 0 C1 1.65 1 3.3 1 5 C0.01 5.33 -0.98 5.66 -2 6 C-2.33 6.99 -2.66 7.98 -3 9 C-5.0625 10.1875 -5.0625 10.1875 -7 11 C-5.23867546 6.99698968 -2.73867517 3.3971023 0 0 Z " fill="#1E6642" transform="translate(189,237)"/>
<path d="M0 0 C6.30214697 0.33169195 10.85216936 3.67323988 16 7 C15.01 7.495 15.01 7.495 14 8 C11.55667274 6.92481882 9.23245477 5.80191434 6.875 4.5625 C6.21628906 4.22412109 5.55757812 3.88574219 4.87890625 3.53710938 C3.24893453 2.69850074 1.62398091 1.85015189 0 1 C0 0.67 0 0.34 0 0 Z " fill="#24905A" transform="translate(175,118)"/>
<path d="M0 0 C0.33 0.66 0.66 1.32 1 2 C-0.78150459 6.65170644 -2.51851506 8.81981814 -7 11 C-5.22054913 6.95579349 -2.60470327 3.53921513 0 0 Z " fill="#1E6541" transform="translate(215,201)"/>
<path d="M0 0 C0.680625 0.33 1.36125 0.66 2.0625 1 C5.50840238 2.17307315 8.38397422 2.14180493 12 2 C12 2.66 12 3.32 12 4 C7.28400182 4.92470553 4.32734391 5.22923777 0 3 C0 2.01 0 1.02 0 0 Z " fill="#20754B" transform="translate(148,198)"/>
<path d="M0 0 C4.37436651 0.50864727 7.40096719 1.42926228 11 4 C11.33 4.66 11.66 5.32 12 6 C10.55903414 5.57405412 9.12231288 5.13373367 7.6875 4.6875 C6.88699219 4.44386719 6.08648437 4.20023438 5.26171875 3.94921875 C2.90035427 2.95817977 1.66120007 1.91925057 0 0 Z " fill="#238956" transform="translate(208,133)"/>
<path d="M0 0 C0.75 1.6875 0.75 1.6875 1 4 C-0.8125 6.75 -0.8125 6.75 -3 9 C-3.66 9 -4.32 9 -5 9 C-3.7508258 5.54074837 -2.32472205 2.85306797 0 0 Z " fill="#259B60" transform="translate(139,49)"/>
<path d="M0 0 C5.53846154 0.61538462 5.53846154 0.61538462 7.875 2.5625 C8.431875 3.2740625 8.431875 3.2740625 9 4 C6.36 4 3.72 4 1 4 C0.67 2.68 0.34 1.36 0 0 Z " fill="#2CCD7D" transform="translate(85,182)"/>
<path d="M0 0 C0.66 0.33 1.32 0.66 2 1 C-0.06756277 3.7972908 -1.14440371 4.02692273 -4.6875 4.6875 C-5.780625 4.790625 -6.87375 4.89375 -8 5 C-6.35197949 1.70395897 -3.32254422 1.22409524 0 0 Z " fill="#228553" transform="translate(93,150)"/>
<path d="M0 0 C0.66 0.33 1.32 0.66 2 1 C-0.06756277 3.7972908 -1.14440371 4.02692273 -4.6875 4.6875 C-5.780625 4.790625 -6.87375 4.89375 -8 5 C-6.35197949 1.70395897 -3.32254422 1.22409524 0 0 Z " fill="#228554" transform="translate(112,142)"/>
<path d="M0 0 C0.66 0.33 1.32 0.66 2 1 C-0.06756277 3.7972908 -1.14440371 4.02692273 -4.6875 4.6875 C-5.780625 4.790625 -6.87375 4.89375 -8 5 C-6.35197949 1.70395897 -3.32254422 1.22409524 0 0 Z " fill="#238A56" transform="translate(143,129)"/>
<path d="M0 0 C0.33 0.66 0.66 1.32 1 2 C-3.75 6.875 -3.75 6.875 -6 8 C-4.55746343 4.63408134 -2.66735273 2.48952921 0 0 Z " fill="#1C5639" transform="translate(227,186)"/>
<path d="M0 0 C-0.66 1.32 -1.32 2.64 -2 4 C-4.31 4 -6.62 4 -9 4 C-8 2 -8 2 -5.625 0.875 C-3 0 -3 0 0 0 Z " fill="#29BB72" transform="translate(230,180)"/>
<path d="M0 0 C0.33 1.32 0.66 2.64 1 4 C0.360625 4.268125 -0.27875 4.53625 -0.9375 4.8125 C-3.33131686 5.88667752 -3.33131686 5.88667752 -4 9 C-4.33 8.34 -4.66 7.68 -5 7 C-3.35 4.69 -1.7 2.38 0 0 Z " fill="#24925C" transform="translate(118,81)"/>
<path d="M0 0 C4.31392226 0.4793247 6.16569547 1.7457985 9 5 C5.22454612 3.90931332 2.52956528 3.0916909 0 0 Z " fill="#259D61" transform="translate(90,166)"/>
</svg>
