<svg xmlns="http://www.w3.org/2000/svg" width="55" height="55" fill="none" xmlns:v="https://vecta.io/nano"><path fill-rule="evenodd" d="M8.482 46.707c-1.086-1.081-1.627-2.747-1.624-4.998v-4.877a1.62 1.62 0 0 0-.431-1.143l-3.446-3.45C1.378 30.656.577 29.098.577 27.566s.791-3.087 2.374-4.666l3.446-3.45a1.61 1.61 0 0 0 .431-1.143v-4.89c0-2.268.541-3.938 1.624-5.011s2.736-1.61 4.958-1.613h4.902c.205.007.409-.028.6-.102s.365-.186.511-.33l3.489-3.45C24.499 1.347 26.053.56 27.575.551s3.076.779 4.661 2.363l3.446 3.45a1.56 1.56 0 0 0 1.142.431h4.872c2.246 0 3.909.542 4.989 1.626s1.621 2.75 1.624 4.998v4.877a1.61 1.61 0 0 0 .431 1.143l3.446 3.45c1.582 1.581 2.379 3.136 2.391 4.666s-.785 3.083-2.391 4.661l-3.446 3.45a1.62 1.62 0 0 0-.431 1.143v4.877c0 2.245-.546 3.911-1.637 4.998s-2.75 1.629-4.976 1.626h-4.872c-.21-.009-.419.024-.615.098s-.375.188-.526.333l-3.446 3.45c-1.585 1.567-3.139 2.354-4.661 2.363s-3.076-.779-4.661-2.363l-3.489-3.45a1.5 1.5 0 0 0-1.111-.431h-4.902c-2.203.017-3.846-.516-4.928-1.6zm16.743-8.713c.872 0 1.623-.436 2.132-1.211l10.828-16.932c.315-.509.606-1.09.606-1.647 0-1.187-1.066-1.986-2.204-1.986-.727 0-1.381.388-1.889 1.211l-9.568 15.358-4.506-5.741c-.581-.751-1.163-1.017-1.889-1.017-1.187 0-2.108.945-2.108 2.156 0 .581.218 1.114.63 1.623l5.717 6.977c.654.848 1.357 1.211 2.253 1.211z" fill="#fff"/></svg>