<svg xmlns="http://www.w3.org/2000/svg" width="400" height="400" fill-rule="evenodd" xmlns:v="https://vecta.io/nano"><path d="M192.542 45.3l-12.289 18.688L170.2 79.284 157 99.401l-14.8 22.541-9.654 14.695-8.366 12.763-10.498 16-7.991 12.109c-1.653 2.481-2.912 4.603-2.798 4.717s2.705-.863 5.757-2.172l16.95-7.176 48.6-20.477 20.189-8.515 6.19-2.597 2.01.903 39.465 17.623 12.8 5.714 10.946 4.9 19.2 8.577c5.5 2.457 10.069 4.413 10.153 4.345.15-.121-7.801-12.943-13.364-21.551l-8.381-13.2-10.398-16.4-11.17-17.6-15.375-24.301-17.845-28.2L207.391 44.4l-4.559-7.1c-1.16-1.815-2.277-3.3-2.482-3.3s-3.718 5.085-7.808 11.3m4.858 117.733c-1.76.777-8.6 3.67-15.2 6.431l-23.6 9.939-19 7.999-19 7.999-16.385 6.915c-5.842 2.434-5.785 2.262-1.511 4.581l10.696 5.899 4.2 2.329 4.8 2.675 5 2.794 18.2 10.113 8.4 4.679 8.8 4.886 9.6 5.321 9.2 5.115 10.307 5.746c9.072 5.061 8.97 5.02 10.493 4.207a8914.12 8914.12 0 0 0 29.8-16.664L244 237.4l11.8-6.599 17-9.526 21.161-11.846c3.168-1.776 5.742-3.385 5.72-3.575s-6.485-3.209-14.361-6.709l-15.52-6.925-8.8-3.942-29.8-13.284-30.358-13.384c-.133.006-1.682.646-3.442 1.423m-94.2 66.397c0 .127.779 1.252 1.731 2.5s11 15.23 22.329 31.07l33.769 47.145 17.8 24.8 22.7 31.341c.299.095 3.854-4.821 46.192-63.886l15.811-22 36.352-51.049c-.092-.093-2.309 1.065-4.926 2.573l-6.758 3.854-9.2 5.219-8.6 4.893-26.6 15.109-26.4 14.998-8.982 5.105c-6.652 3.795-7.489 4.171-8.464 3.803-.594-.224-5.642-3.06-11.217-6.301l-16.337-9.493-8.8-5.111-19-10.998-13.8-8.001-13.8-8.003-10.056-5.866c-3.221-1.912-3.744-2.15-3.744-1.702" fill="#33fa9b"/><path d="M183.6 8.742c0 .188-2.475.469-5.5.624s-5.56.452-5.633.659-1.199.375-2.5.375-2.367.161-2.367.358-1.44.486-3.2.642-3.2.445-3.2.642-.81.358-1.8.358-1.8.166-1.8.368-1.17.494-2.6.647-2.6.437-2.6.632-.63.353-1.4.353-1.4.159-1.4.354-.99.478-2.2.629-2.2.442-2.2.646-.45.371-1 .371-1 .157-1 .348-1.08.471-2.4.62-2.4.443-2.4.652-.45.38-1 .38-1 .178-1 .395-.72.511-1.6.651-1.6.413-1.6.605-.45.349-1 .349-1 .169-1 .375-.81.497-1.8.646-1.8.429-1.8.624-.27.355-.6.355-.6.157-.6.349-.72.464-1.6.605-1.6.433-1.6.651-.36.395-.8.395-.8.178-.8.395-.72.511-1.6.651-1.6.413-1.6.605-.27.349-.6.349-.6.16-.6.355-.63.474-1.4.619-1.4.434-1.4.644-.27.382-.6.382-.6.16-.6.355-.63.474-1.4.619-1.4.434-1.4.644-.27.382-.6.382-.6.177-.6.392-.45.506-1 .644-1 .411-1 .607-.36.357-.8.357-.8.16-.8.357-.484.478-1.076.626-1.368.606-1.724 1.017-1.144.871-1.752 1.024-1.315.614-1.572 1.026-.791.75-1.185.75-.82.27-.946.6-.571.6-.988.6-.757.16-.757.357-.45.469-1 .607-1 .428-1 .644-.204.392-.454.392-.871.45-1.381 1-1.186 1-1.503 1-.68.27-.807.6-.583.6-1.015.6-.897.351-1.034.78-.627.9-1.093 1.047-1.274.697-1.797 1.221-1.171.952-1.439.952-.825.45-1.238 1-1.074 1-1.468 1-.828.351-.965.78A1.76 1.76 0 0 1 78.4 51.4a1.76 1.76 0 0 0-1.006 1.02c-.137.429-.533.78-.881.78s-1.496.9-2.55 2-2.099 2-2.321 2c-.526 0-14.442 13.916-14.442 14.442 0 .222-.9 1.266-2 2.321s-2 2.202-2 2.55-.351.744-.78.881A1.76 1.76 0 0 0 51.4 78.4a1.76 1.76 0 0 1-1.02 1.006c-.429.137-.78.571-.78.965s-.45 1.055-1 1.468-1 .97-1 1.238-.428.915-.952 1.439-1.073 1.332-1.221 1.797-.619.957-1.047 1.093-.78.601-.78 1.034-.27.889-.6 1.015-.6.49-.6.807-.45.993-1 1.503-1 1.131-1 1.381-.177.454-.392.454-.506.45-.644 1-.411 1-.607 1-.357.341-.357.757-.27.861-.6.988-.6.552-.6.946-.337.927-.75 1.185-.874.965-1.026 1.572-.613 1.396-1.024 1.752-.868 1.132-1.017 1.724-.43 1.076-.626 1.076-.357.36-.357.8-.16.8-.357.8-.469.45-.607 1-.428 1-.644 1-.392.27-.392.6-.172.6-.382.6-.5.63-.644 1.4-.423 1.4-.619 1.4-.355.27-.355.6-.172.6-.382.6-.5.63-.644 1.4-.423 1.4-.619 1.4-.355.27-.355.6-.157.6-.349.6-.464.72-.605 1.6-.433 1.6-.651 1.6-.395.36-.395.8-.178.8-.395.8-.511.72-.651 1.6-.413 1.6-.605 1.6-.349.27-.349.6-.16.6-.355.6-.476.81-.624 1.8-.439 1.8-.646 1.8-.375.45-.375 1-.157 1-.349 1-.464.72-.605 1.6-.433 1.6-.651 1.6-.395.45-.395 1-.171 1-.38 1-.502 1.08-.652 2.4-.428 2.4-.62 2.4-.348.45-.348 1-.167 1-.371 1-.495.99-.646 2.2-.434 2.2-.629 2.2-.354.63-.354 1.4-.159 1.4-.353 1.4-.479 1.17-.632 2.6-.444 2.6-.647 2.6-.368.81-.368 1.8-.161 1.8-.358 1.8-.486 1.44-.642 3.2-.445 3.2-.642 3.2-.358 1.065-.358 2.367-.169 2.426-.375 2.5-.503 2.608-.659 5.633-.436 5.5-.624 5.5-.342 7.47-.342 16.6.153 16.6.34 16.6.467 2.565.621 5.7.451 5.76.659 5.833.38 1.109.38 2.3.159 2.167.353 2.167.48 1.53.636 3.4.447 3.4.647 3.4.364.72.364 1.6.162 1.6.359 1.6.486 1.26.641 2.8.443 2.8.641 2.8.359.54.359 1.2.157 1.2.348 1.2.471 1.08.62 2.4.443 2.4.652 2.4.38.45.38 1 .155 1 .344 1 .45.886.578 1.969.408 2.299.622 2.7c.932 1.752 1.656 3.715 1.656 4.491 0 .462.18.84.4.84s.4.45.4 1 .178 1 .395 1 .511.72.651 1.6.413 1.6.605 1.6.349.36.349.8.157.8.349.8.464.72.605 1.6.433 1.6.651 1.6.395.27.395.6.169.6.375.6.497.81.646 1.8.429 1.8.624 1.8.355.27.355.6.172.6.382.6.5.63.644 1.4.423 1.4.619 1.4.355.27.355.6.172.6.382.6.5.63.644 1.4.423 1.4.619 1.4.355.27.355.6.177.6.392.6.506.45.644 1 .411 1 .607 1 .357.27.357.6.157.6.35.6.463.564.601 1.254.584 1.544.993 1.9.883 1.096 1.056 1.646.623 1.27 1 1.6a3.93 3.93 0 0 1 .97 1.5c.156.495.452.9.657.9s.373.27.373.6.16.6.357.6.469.45.607 1 .428 1 .644 1 .392.227.392.504.45.989 1 1.583 1 1.266 1 1.496.168.417.373.417.497.39.648.866.703 1.295 1.227 1.818.952 1.171.952 1.439.45.825 1 1.238 1 1.074 1 1.468.351.828.78.965.903.638 1.055 1.116 1.061 1.632 2.02 2.565 1.745 1.873 1.745 2.091.878 1.274 1.952 2.348 2.072 2.332 2.22 2.798.611.955 1.028 1.088a1.74 1.74 0 0 1 1 1 1.74 1.74 0 0 0 1 1 1.74 1.74 0 0 1 1 1 1.74 1.74 0 0 0 1 1 1.74 1.74 0 0 1 1 1 1.74 1.74 0 0 0 1 1 1.74 1.74 0 0 1 1 1 1.74 1.74 0 0 0 1 1 1.74 1.74 0 0 1 1 1 1.74 1.74 0 0 0 1 1 1.74 1.74 0 0 1 1 1 1.76 1.76 0 0 0 1.02 1.006c.429.137.78.416.78.621s.198.373.44.373 1.321.9 2.398 2 2.146 2 2.376 2 1.103.72 1.94 1.6 1.808 1.6 2.157 1.6.746.351.883.78.627.9 1.093 1.047 1.274.697 1.797 1.221 1.171.952 1.439.952.825.45 1.238 1 1.074 1 1.468 1 .831.36.971.8.605.8 1.04.8.88.247.996.55.83.883 1.587 1.291 1.377.88 1.377 1.05.27.309.6.309.6.18.6.4.366.4.813.4.916.27 1.042.6.552.6.945.6.818.27.945.6.596.6 1.042.6.813.18.813.4.27.4.6.4.6.177.6.392.45.506 1 .644 1 .411 1 .607.27.357.6.357.6.157.6.35.564.463 1.254.601 1.555.598 1.923 1.023 1.155.894 1.747 1.043 1.076.43 1.076.626.36.357.8.357.8.166.8.368.54.487 1.2.632 1.2.429 1.2.632.36.368.8.368.8.178.8.395.72.511 1.6.651 1.6.413 1.6.605.27.349.6.349.6.16.6.355.63.474 1.4.619 1.4.434 1.4.644.45.382 1 .382 1 .178 1 .395.72.511 1.6.651 1.6.413 1.6.605.36.349.8.349.8.163.8.362.9.487 2 .638 2 .394 2 .54c0 .396 2.147 1.269 3.77 1.533.787.127 1.43.388 1.43.579s.63.348 1.4.348 1.4.163 1.4.362.9.487 2 .638 2 .438 2 .638.54.362 1.2.362 1.2.162 1.2.359 1.26.486 2.8.641 2.8.443 2.8.641.54.359 1.2.359 1.2.159 1.2.353 1.53.48 3.4.636 3.4.447 3.4.647.709.364 1.576.364 1.677.162 1.8.36 2.293.49 4.823.648 4.601.446 4.601.64 1.429.352 3.176.352 3.288.18 3.424.4c.34.55 33 .55 33 0 0-.235 1.4-.4 3.4-.4 1.87 0 3.4-.158 3.4-.352s2.07-.481 4.6-.64 4.6-.449 4.6-.647.81-.361 1.8-.361 1.8-.161 1.8-.358 1.44-.486 3.2-.642 3.2-.445 3.2-.642.63-.358 1.4-.358 1.4-.159 1.4-.353 1.17-.479 2.6-.632 2.6-.444 2.6-.647.63-.368 1.4-.368 1.4-.163 1.4-.362.9-.487 2-.638 2-.438 2-.638.63-.362 1.4-.362 1.4-.156 1.4-.348.643-.452 1.43-.579c1.623-.264 3.77-1.137 3.77-1.533 0-.146.9-.389 2-.54s2-.438 2-.638.27-.362.6-.362.6-.16.6-.355.81-.476 1.8-.624 1.8-.439 1.8-.646.45-.375 1-.375 1-.166 1-.368.54-.487 1.2-.632 1.2-.429 1.2-.632.36-.368.8-.368.8-.157.8-.349.72-.464 1.6-.605 1.6-.433 1.6-.651.27-.395.6-.395.6-.16.6-.355.63-.474 1.4-.619 1.4-.434 1.4-.644.27-.382.6-.382.6-.158.6-.35.564-.463 1.254-.601 1.555-.598 1.923-1.023 1.155-.894 1.747-1.043 1.076-.43 1.076-.626.36-.357.8-.357.8-.16.8-.357.45-.469 1-.607 1-.428 1-.644.27-.392.6-.392.6-.16.6-.357.45-.469 1-.607 1-.428 1-.644.27-.392.6-.392.6-.177.6-.392.45-.506 1-.644 1-.39 1-.561.315-.424.7-.563c1.182-.427 2.504-1.294 3.337-2.188.437-.468 1.017-.852 1.29-.852s.756-.36 1.073-.8.799-.8 1.07-.8.922-.428 1.446-.952 1.332-1.073 1.797-1.221.957-.619 1.093-1.047.571-.78.965-.78 1.055-.45 1.468-1 .971-1 1.24-1 1.203-.72 2.074-1.6 1.701-1.6 1.844-1.6c.302 0 1.701-1.203 2.884-2.481.728-.786 1.656-1.519 1.924-1.519.32 0 14.595-14.287 14.595-14.607 0-.293 1.22-1.706 2.481-2.874.796-.737 1.519-1.658 1.519-1.933 0-.137.72-.962 1.6-1.833s1.6-1.804 1.6-2.074.45-.827 1-1.24 1-1.074 1-1.468.351-.828.78-.965.9-.627 1.047-1.093.697-1.274 1.221-1.797.952-1.174.952-1.446.36-.753.8-1.07.8-.8.8-1.073.384-.853.852-1.29c.894-.833 1.761-2.155 2.188-3.337.139-.385.393-.7.563-.7s.423-.45.561-1 .428-1 .644-1 .392-.27.392-.6.177-.6.392-.6.506-.45.644-1 .411-1 .607-1 .357-.27.357-.6.177-.6.392-.6.506-.45.644-1 .411-1 .607-1 .357-.36.357-.8.16-.8.357-.8.478-.484.626-1.076.618-1.378 1.043-1.747.885-1.234 1.023-1.923.409-1.254.601-1.254.35-.27.35-.6.172-.6.382-.6.5-.63.644-1.4.423-1.4.619-1.4.355-.27.355-.6.178-.6.395-.6.511-.72.651-1.6.413-1.6.605-1.6.349-.36.349-.8.166-.8.368-.8.487-.54.632-1.2.429-1.2.632-1.2.368-.45.368-1 .169-1 .375-1 .497-.81.646-1.8.429-1.8.624-1.8.355-.27.355-.6.163-.6.362-.6.487-.9.638-2 .394-2 .54-2c.396 0 1.269-2.147 1.533-3.77.127-.787.388-1.43.579-1.43s.348-.63.348-1.4.163-1.4.362-1.4.487-.9.638-2 .438-2 .638-2 .362-.63.362-1.4.166-1.4.368-1.4.494-1.17.647-2.6.437-2.6.632-2.6.353-.63.353-1.4.161-1.4.358-1.4.486-1.44.642-3.2.445-3.2.642-3.2.358-.81.358-1.8.162-1.8.361-1.8.489-2.07.647-4.6.446-4.6.64-4.6.352-1.53.352-3.4c0-2 .165-3.4.4-3.4.26 0 .4-5.725.4-16.376 0-10.487-.144-16.466-.4-16.624-.22-.136-.4-1.677-.4-3.424s-.158-3.176-.352-3.176-.481-2.07-.64-4.601-.449-4.701-.648-4.823-.36-.933-.36-1.8-.164-1.576-.364-1.576-.492-1.53-.647-3.4-.442-3.4-.636-3.4-.353-.54-.353-1.2-.162-1.2-.359-1.2-.486-1.26-.641-2.8-.443-2.8-.641-2.8-.359-.54-.359-1.2-.163-1.2-.362-1.2-.487-.9-.638-2-.438-2-.638-2-.362-.63-.362-1.4-.156-1.4-.348-1.4-.452-.643-.579-1.43c-.264-1.623-1.137-3.77-1.533-3.77-.146 0-.389-.9-.54-2s-.438-2-.638-2-.362-.36-.362-.8-.157-.8-.349-.8-.464-.72-.605-1.6-.433-1.6-.651-1.6-.395-.45-.395-1-.172-1-.382-1-.5-.63-.644-1.4-.423-1.4-.619-1.4-.355-.27-.355-.6-.157-.6-.349-.6-.464-.72-.605-1.6-.433-1.6-.651-1.6-.395-.36-.395-.8-.166-.8-.368-.8-.487-.54-.632-1.2-.429-1.2-.632-1.2-.368-.36-.368-.8-.16-.8-.357-.8-.478-.484-.626-1.076-.618-1.378-1.043-1.747-.885-1.234-1.023-1.923-.409-1.254-.601-1.254-.35-.27-.35-.6-.16-.6-.357-.6-.469-.45-.607-1-.428-1-.644-1-.392-.27-.392-.6-.18-.6-.4-.6-.4-.366-.4-.813-.27-.916-.6-1.042-.6-.552-.6-.945-.27-.818-.6-.945-.6-.596-.6-1.042-.18-.813-.4-.813-.4-.27-.4-.6-.139-.6-.309-.6-.643-.619-1.05-1.377-.989-1.471-1.291-1.587-.55-.564-.55-.996-.358-.9-.8-1.04-.8-.577-.8-.971-.45-1.055-1-1.468-1-.97-1-1.238-.428-.915-.952-1.439-1.073-1.332-1.221-1.797-.619-.957-1.047-1.093-.78-.534-.78-.883-.72-1.32-1.6-2.157-1.6-1.71-1.6-1.94-.9-1.299-2-2.376-2-2.157-2-2.398-.168-.44-.373-.44-.484-.351-.621-.78a1.76 1.76 0 0 0-1.006-1.02 1.74 1.74 0 0 1-1-1 1.74 1.74 0 0 0-1-1 1.74 1.74 0 0 1-1-1 1.74 1.74 0 0 0-1-1 1.74 1.74 0 0 1-1-1 1.74 1.74 0 0 0-1-1 1.74 1.74 0 0 1-1-1 1.74 1.74 0 0 0-1-1 1.74 1.74 0 0 1-1-1 1.74 1.74 0 0 0-1-1 1.74 1.74 0 0 1-1-1c-.133-.417-.622-.88-1.088-1.028s-1.725-1.147-2.798-2.22-2.13-1.952-2.348-1.952-1.159-.785-2.091-1.745-2.087-1.868-2.565-2.02-.98-.627-1.116-1.055-.571-.78-.965-.78-1.055-.45-1.468-1-.97-1-1.238-1-.915-.428-1.439-.952-1.342-1.076-1.818-1.227-.866-.443-.866-.648-.188-.373-.417-.373-.903-.45-1.496-1-1.306-1-1.583-1-.504-.177-.504-.392-.45-.506-1-.644-1-.411-1-.607-.27-.357-.6-.357-.6-.168-.6-.373-.405-.501-.9-.657a3.93 3.93 0 0 1-1.5-.97c-.33-.377-1.05-.827-1.6-1s-1.291-.648-1.646-1.056-1.211-.855-1.9-.993-1.254-.408-1.254-.601-.27-.35-.6-.35-.6-.16-.6-.357-.45-.469-1-.607-1-.428-1-.644-.27-.392-.6-.392-.6-.16-.6-.355-.63-.474-1.4-.619-1.4-.434-1.4-.644-.27-.382-.6-.382-.6-.16-.6-.355-.63-.474-1.4-.619-1.4-.434-1.4-.644-.27-.382-.6-.382-.6-.16-.6-.355-.81-.476-1.8-.624-1.8-.439-1.8-.646-.27-.375-.6-.375-.6-.178-.6-.395-.72-.511-1.6-.651-1.6-.413-1.6-.605-.36-.349-.8-.349-.8-.157-.8-.349-.72-.464-1.6-.605-1.6-.433-1.6-.651-.45-.395-1-.395-1-.18-1-.4-.378-.4-.84-.4c-.776 0-2.739-.724-4.491-1.656-.401-.214-1.616-.494-2.7-.622s-1.969-.388-1.969-.578-.45-.344-1-.344-1-.171-1-.38-1.08-.502-2.4-.652-2.4-.428-2.4-.62-.54-.348-1.2-.348-1.2-.162-1.2-.359-1.26-.486-2.8-.641-2.8-.443-2.8-.641-.72-.359-1.6-.359-1.6-.164-1.6-.364-1.53-.492-3.4-.647-3.4-.442-3.4-.636-.975-.353-2.167-.353-2.226-.171-2.3-.38-2.698-.505-5.833-.659-5.7-.433-5.7-.621-7.47-.34-16.6-.34-16.6.154-16.6.342M202.832 37.3l4.559 7.1 11.229 17.699 17.845 28.2L251.84 114.6l11.17 17.6 10.398 16.4 8.381 13.2c5.563 8.608 13.514 21.43 13.364 21.551-.084.068-4.653-1.888-10.153-4.345l-19.2-8.577-10.946-4.9-12.8-5.714-39.465-17.623-2.01-.903-6.19 2.597-20.189 8.515-48.6 20.477-16.95 7.176c-3.052 1.309-5.643 2.287-5.757 2.172s1.145-2.236 2.798-4.717l7.991-12.109 10.498-16 8.366-12.763 9.654-14.695L157 99.401l13.2-20.117 10.053-15.296L200.35 34c.205 0 1.322 1.485 2.482 3.3m2.21 126.046l26.158 11.648 29.8 13.284 8.8 3.942c.66.308 7.644 3.424 15.52 6.925s14.339 6.519 14.361 6.709-2.552 1.799-5.72 3.575L272.8 221.275l-17 9.526L244 237.4l-11.8 6.597-29.8 16.664c-1.523.813-1.421.854-10.493-4.207l-10.307-5.746-9.2-5.115-9.6-5.321-8.8-4.886-8.4-4.679-18.2-10.113-5-2.794-4.8-2.675-4.2-2.329-10.696-5.899c-4.274-2.319-4.331-2.147 1.511-4.581l16.385-6.915 19-7.999 19-7.999 23.6-9.939 15.2-6.431c3.897-1.719 2.947-1.758 7.642.313m-98.098 67.786L117 236.998l13.8 8.003 13.8 8.001 19 10.998 8.8 5.111 16.337 9.493c5.575 3.241 10.623 6.077 11.217 6.301.975.368 1.812-.008 8.464-3.803l8.982-5.105 26.4-14.998 26.6-15.109 8.6-4.893 9.2-5.219 6.758-3.854c2.617-1.508 4.834-2.666 4.926-2.573.147.147-17.269 24.604-36.352 51.049l-15.811 22-46.192 63.886c-.24-.076-4.081-5.38-22.7-31.341l-17.8-24.8L127.26 263l-22.329-31.07c-2.602-3.412-2.476-3.462 2.013-.798" fill="#141414"/></svg>