<svg xmlns="http://www.w3.org/2000/svg" width="20" height="20" fill="none" xmlns:v="https://vecta.io/nano"><path fill-rule="evenodd" d="M6.649 2L1 7.653l9.5 9.496L20 7.653 14.351 2H6.649zm-.514 3.595c2.4-2.411 6.33-2.411 8.73 0l2.054 2.054-2.054 2.054c-2.4 2.411-6.33 2.411-8.73 0L4.081 7.649l2.054-2.054zm1.412 2.054c0 1.631 1.323 2.953 2.953 2.953s2.953-1.321 2.953-2.953S12.13 4.696 10.5 4.696 7.547 6.017 7.547 7.648zM10.5 8.932c-.709 0-1.284-.574-1.284-1.284s.575-1.284 1.284-1.284 1.284.574 1.284 1.284-.575 1.284-1.284 1.284z" fill="#9b9b9b"/></svg>