<svg xmlns="http://www.w3.org/2000/svg" width="20" height="20" fill="none" xmlns:v="https://vecta.io/nano"><path d="M10 1c-4.97 0-9 4.03-9 9s4.03 9 9 9 9-4.03 9-9a9 9 0 0 0-9-9zm-4.559 9.302l.038-.061L7.82 6.578c.034-.052.115-.047.14.011.391.877.729 1.967.571 2.646-.067.279-.252.657-.461 1.006-.027.05-.056.101-.088.149-.014.022-.04.034-.067.034H5.509c-.065 0-.103-.07-.068-.122zm10.435 1.26c0 .034-.02.063-.049.076-.182.077-.803.364-1.06.722-.659.916-1.161 2.227-2.286 2.227H7.79c-1.663 0-3.01-1.352-3.01-3.02v-.054c0-.043.036-.079.081-.079h2.614c.052 0 .09.047.086.099a.88.88 0 0 0 .094.502.92.92 0 0 0 .824.511h1.294v-1.01h-1.28c-.065 0-.104-.076-.067-.13l.047-.068c.121-.173.293-.439.466-.743.117-.205.23-.425.322-.644.018-.04.032-.081.049-.121.025-.07.05-.137.068-.202.018-.056.034-.113.049-.167.043-.187.061-.385.061-.59 0-.081-.004-.166-.011-.245-.004-.088-.014-.176-.025-.265-.007-.077-.022-.155-.036-.234a4.87 4.87 0 0 0-.074-.351l-.011-.045c-.022-.081-.041-.157-.067-.238a8.87 8.87 0 0 0-.247-.729 3.91 3.91 0 0 0-.106-.266c-.054-.133-.11-.254-.16-.367-.027-.052-.049-.099-.07-.148l-.077-.16c-.018-.04-.04-.077-.054-.113l-.158-.292c-.022-.04.014-.088.058-.076l.99.268h.004l.133.038.144.04.052.014v-.587a.51.51 0 0 1 .509-.515c.14 0 .268.058.358.151s.149.221.149.364v.873l.106.029c.007.004.016.007.023.013.025.018.063.047.11.083.038.029.077.065.124.103.095.077.211.176.335.29.032.029.065.058.095.088.16.149.34.324.513.518l.144.169c.047.059.099.117.142.175a4.21 4.21 0 0 1 .176.243c.025.04.056.081.079.121a3.77 3.77 0 0 1 .193.326 2.16 2.16 0 0 1 .072.16 2.23 2.23 0 0 1 .151.448.49.49 0 0 1 .022.099v.007a.83.83 0 0 1 .018.139c.014.153.007.308-.025.463a2.07 2.07 0 0 1-.054.193c-.023.063-.045.128-.074.191a2.59 2.59 0 0 1-.198.376c-.025.045-.056.092-.085.137l-.095.135c-.041.056-.085.113-.13.166-.04.054-.079.108-.124.157a4.22 4.22 0 0 1-.184.209 1.56 1.56 0 0 1-.117.128c-.04.045-.081.085-.117.121-.063.063-.113.11-.157.151l-.103.092c-.014.014-.034.022-.054.022h-.788v1.01h.992a.92.92 0 0 0 .603-.223c.058-.05.311-.27.612-.601.011-.013.023-.02.038-.023l2.738-.792a.08.08 0 0 1 .103.077v.58z" fill="#9b9b9b"/></svg>