<svg xmlns="http://www.w3.org/2000/svg" width="20" height="20" fill="#9b9b9b" xmlns:v="https://vecta.io/nano"><path d="M17.146 4.528C15.767 3.18 13.881 2.35 11.8 2.35a7.65 7.65 0 0 0 0 15.3c2.08 0 3.967-.83 5.346-2.178C15.501 17.617 12.912 19 10 19a9 9 0 1 1 0-18c2.912 0 5.501 1.383 7.146 3.528z"/><path d="M6.083 14.378a6.1 6.1 0 0 0 4.277 1.742 6.12 6.12 0 0 0 0-12.24 6.1 6.1 0 0 0-4.277 1.742C7.399 3.906 9.47 2.8 11.8 2.8a7.2 7.2 0 0 1 0 14.4c-2.33 0-4.401-1.106-5.717-2.822z"/><path fill-rule="evenodd" d="M15.4 10a5.4 5.4 0 1 1-10.8 0 5.4 5.4 0 1 1 10.8 0zm-1.8 0a3.6 3.6 0 0 1-7.2 0 3.6 3.6 0 0 1 7.2 0z"/></svg>