<?xml version="1.0" encoding="UTF-8"?>
<!DOCTYPE svg PUBLIC "-//W3C//DTD SVG 1.1//EN" "http://www.w3.org/Graphics/SVG/1.1/DTD/svg11.dtd">
<svg xmlns="http://www.w3.org/2000/svg" version="1.1" width="420px" height="420px" style="shape-rendering:geometricPrecision; text-rendering:geometricPrecision; image-rendering:optimizeQuality; fill-rule:evenodd; clip-rule:evenodd" xmlns:xlink="http://www.w3.org/1999/xlink">
<g><path style="opacity:0.969" fill="#004018" d="M 209.5,24.5 C 209.5,36.8333 209.5,49.1667 209.5,61.5C 209.5,61.8333 209.5,62.1667 209.5,62.5C 199.072,68.9285 188.406,74.9285 177.5,80.5C 172.203,77.1807 166.869,73.8474 161.5,70.5C 161.5,64.1667 161.5,57.8333 161.5,51.5C 177.517,42.472 193.517,33.472 209.5,24.5 Z"/></g>
<g><path style="opacity:0.978" fill="#007528" d="M 209.5,24.5 C 215.165,26.9969 220.498,29.9969 225.5,33.5C 225.5,39.8333 225.5,46.1667 225.5,52.5C 220.167,55.5 214.833,58.5 209.5,61.5C 209.5,49.1667 209.5,36.8333 209.5,24.5 Z"/></g>
<g><path style="opacity:0.939" fill="#6bc100" d="M 225.5,33.5 C 230.833,36.5 236.167,39.5 241.5,42.5C 236.539,46.3198 231.206,49.6532 225.5,52.5C 225.5,46.1667 225.5,39.8333 225.5,33.5 Z"/></g>
<g><path style="opacity:1" fill="#007327" d="M 177.5,43.5 C 182.638,46.2371 187.638,49.2371 192.5,52.5C 187.751,55.6253 182.917,58.6253 178,61.5C 177.501,55.5092 177.334,49.5092 177.5,43.5 Z"/></g>
<g><path style="opacity:0.941" fill="#092411" d="M 161.5,51.5 C 161.5,57.8333 161.5,64.1667 161.5,70.5C 155.835,68.0031 150.502,65.0031 145.5,61.5C 150.797,58.1807 156.131,54.8474 161.5,51.5 Z"/></g>
<g><path style="opacity:0.938" fill="#00a824" d="M 257.5,51.5 C 262.869,54.8474 268.203,58.1807 273.5,61.5C 268.279,64.3621 263.112,67.3621 258,70.5C 257.5,64.1754 257.334,57.8421 257.5,51.5 Z"/></g>
<g><path style="opacity:0.943" fill="#00a824" d="M 225.5,52.5 C 225.5,58.8333 225.5,65.1667 225.5,71.5C 220.167,68.5 214.833,65.5 209.5,62.5C 209.5,62.1667 209.5,61.8333 209.5,61.5C 214.833,58.5 220.167,55.5 225.5,52.5 Z"/></g>
<g><path style="opacity:0.969" fill="#004018" d="M 145.5,61.5 C 150.502,65.0031 155.835,68.0031 161.5,70.5C 161.5,76.8333 161.5,83.1667 161.5,89.5C 151.199,96.3223 140.533,102.656 129.5,108.5C 124.498,104.997 119.165,101.997 113.5,99.5C 113.5,105.5 113.5,111.5 113.5,117.5C 108.498,121.003 103.165,124.003 97.5,126.5C 97.8293,120.463 97.4959,114.463 96.5,108.5C 91.4661,111.224 86.4661,113.891 81.5,116.5C 81.5,110.5 81.5,104.5 81.5,98.5C 102.498,85.6648 123.832,73.3315 145.5,61.5 Z"/></g>
<g><path style="opacity:0.966" fill="#007527" d="M 241.5,42.5 C 246.833,45.5 252.167,48.5 257.5,51.5C 257.334,57.8421 257.5,64.1754 258,70.5C 263.112,67.3621 268.279,64.3621 273.5,61.5C 306.164,79.1606 338.164,97.8273 369.5,117.5C 364.362,120.237 359.362,123.237 354.5,126.5C 359.362,129.763 364.362,132.763 369.5,135.5C 369.5,141.5 369.5,147.5 369.5,153.5C 363.87,151.019 358.537,148.019 353.5,144.5C 353.823,138.31 353.49,132.31 352.5,126.5C 347.815,123.4 342.981,120.4 338,117.5C 337.501,123.157 337.334,128.824 337.5,134.5C 337.5,135.167 337.5,135.833 337.5,136.5C 310.469,121.323 283.802,105.656 257.5,89.5C 257.829,83.4632 257.496,77.4632 256.5,71.5C 251.271,74.2744 246.271,77.2744 241.5,80.5C 235.835,78.0031 230.502,75.0031 225.5,71.5C 225.5,65.1667 225.5,58.8333 225.5,52.5C 231.206,49.6532 236.539,46.3198 241.5,42.5 Z"/></g>
<g><path style="opacity:1" fill="#007327" d="M 129.5,71.5 C 134.797,73.8151 139.797,76.6485 144.5,80C 140,83.0845 135.333,85.9179 130.5,88.5C 129.505,82.8722 129.171,77.2055 129.5,71.5 Z"/></g>
<g><path style="opacity:0.942" fill="#007427" d="M 161.5,70.5 C 166.869,73.8474 172.203,77.1807 177.5,80.5C 172.498,84.0031 167.165,87.0031 161.5,89.5C 161.5,83.1667 161.5,76.8333 161.5,70.5 Z"/></g>
<g><path style="opacity:0.941" fill="#00a824" d="M 257.5,89.5 C 251.835,87.0031 246.502,84.0031 241.5,80.5C 246.271,77.2744 251.271,74.2744 256.5,71.5C 257.496,77.4632 257.829,83.4632 257.5,89.5 Z"/></g>
<g><path style="opacity:1" fill="#00a724" d="M 273.5,80.5 C 278.638,83.2371 283.638,86.2371 288.5,89.5C 283.751,92.6253 278.917,95.6253 274,98.5C 273.501,92.5092 273.334,86.5092 273.5,80.5 Z"/></g>
<g><path style="opacity:1" fill="#092411" d="M 113.5,99.5 C 108.395,101.887 103.395,104.554 98.5,107.5C 97.3364,101.528 97.1697,95.5276 98,89.5C 103.561,92.5114 108.728,95.8447 113.5,99.5 Z"/></g>
<g><path style="opacity:1" fill="#69c100" d="M 321.5,107.5 C 315.995,105.251 310.995,102.251 306.5,98.5C 311.102,95.5242 315.769,92.5242 320.5,89.5C 321.496,95.4632 321.829,101.463 321.5,107.5 Z"/></g>
<g><path style="opacity:0.936" fill="#007427" d="M 113.5,99.5 C 119.165,101.997 124.498,104.997 129.5,108.5C 124.463,112.019 119.13,115.019 113.5,117.5C 113.5,111.5 113.5,105.5 113.5,99.5 Z"/></g>
<g><path style="opacity:1" fill="#00a823" d="M 306.5,98.5 C 310.995,102.251 315.995,105.251 321.5,107.5C 316.398,110.223 311.398,113.223 306.5,116.5C 305.183,110.346 305.183,104.346 306.5,98.5 Z"/></g>
<g><path style="opacity:0.968" fill="#113e16" d="M 65.5,107.5 C 70.3263,110.804 75.3263,113.97 80.5,117C 75.4356,120.191 70.4356,123.358 65.5,126.5C 60.1667,123.5 54.8333,120.5 49.5,117.5C 49.9528,116.542 50.6195,115.708 51.5,115C 56.0749,112.242 60.7415,109.742 65.5,107.5 Z"/></g>
<g><path style="opacity:1" fill="#0a2411" d="M 97.5,126.5 C 92.1667,123.5 86.8333,120.5 81.5,117.5C 81.5,117.167 81.5,116.833 81.5,116.5C 86.4661,113.891 91.4661,111.224 96.5,108.5C 97.4959,114.463 97.8293,120.463 97.5,126.5 Z"/></g>
<g><path style="opacity:1" fill="#007327" d="M 81.5,98.5 C 81.5,104.5 81.5,110.5 81.5,116.5C 81.5,116.833 81.5,117.167 81.5,117.5C 81.6662,123.509 81.4995,129.509 81,135.5C 80.6174,134.944 80.1174,134.611 79.5,134.5C 74.8333,131.833 70.1667,129.167 65.5,126.5C 70.4356,123.358 75.4356,120.191 80.5,117C 75.3263,113.97 70.3263,110.804 65.5,107.5C 70.5016,103.997 75.835,100.997 81.5,98.5 Z"/></g>
<g><path style="opacity:1" fill="#092411" d="M 49.5,117.5 C 54.8333,120.5 60.1667,123.5 65.5,126.5C 70.1667,129.167 74.8333,131.833 79.5,134.5C 79.5858,135.496 79.2524,136.329 78.5,137C 73.9994,139.416 69.6661,142.083 65.5,145C 70.7287,148.113 76.062,150.947 81.5,153.5C 81.5,166.167 81.5,178.833 81.5,191.5C 76.062,194.053 70.7287,196.887 65.5,200C 70.6959,203.43 76.0292,206.597 81.5,209.5C 81.5,227.833 81.5,246.167 81.5,264.5C 76.6935,267.74 71.6935,270.74 66.5,273.5C 65.6697,267.528 65.1697,261.528 65,255.5C 59.8877,258.638 54.7211,261.638 49.5,264.5C 49.5,252.5 49.5,240.5 49.5,228.5C 54.779,231.273 59.9456,234.273 65,237.5C 65.6667,231.167 65.6667,224.833 65,218.5C 59.8877,221.638 54.7211,224.638 49.5,227.5C 49.5,190.833 49.5,154.167 49.5,117.5 Z"/></g>
<g><path style="opacity:1" fill="#69c100" d="M 352.5,126.5 C 347.632,129.434 342.632,132.1 337.5,134.5C 337.334,128.824 337.501,123.157 338,117.5C 342.981,120.4 347.815,123.4 352.5,126.5 Z"/></g>
<g><path style="opacity:1" fill="#00a724" d="M 369.5,117.5 C 369.5,123.5 369.5,129.5 369.5,135.5C 364.362,132.763 359.362,129.763 354.5,126.5C 359.362,123.237 364.362,120.237 369.5,117.5 Z"/></g>
<g><path style="opacity:1" fill="#00a823" d="M 352.5,126.5 C 353.49,132.31 353.823,138.31 353.5,144.5C 348.167,141.833 342.833,139.167 337.5,136.5C 337.5,135.833 337.5,135.167 337.5,134.5C 342.632,132.1 347.632,129.434 352.5,126.5 Z"/></g>
<g><path style="opacity:1" fill="#063e17" d="M 81.5,117.5 C 86.8333,120.5 92.1667,123.5 97.5,126.5C 92.5081,129.97 87.3414,133.304 82,136.5C 81.5006,142.157 81.3339,147.824 81.5,153.5C 76.062,150.947 70.7287,148.113 65.5,145C 69.6661,142.083 73.9994,139.416 78.5,137C 79.2524,136.329 79.5858,135.496 79.5,134.5C 80.1174,134.611 80.6174,134.944 81,135.5C 81.4995,129.509 81.6662,123.509 81.5,117.5 Z"/></g>
<g><path style="opacity:0.924" fill="#fed638" d="M 209.5,189.5 C 209.5,190.167 209.5,190.833 209.5,191.5C 203.167,197.5 196.833,203.5 190.5,209.5C 170.188,188.187 149.855,166.854 129.5,145.5C 130.002,144.479 130.668,144.312 131.5,145C 157.148,160.489 183.148,175.322 209.5,189.5 Z"/></g>
<g><path style="opacity:0.925" fill="#dbb233" d="M 228.5,209.5 C 222.167,203.5 215.833,197.5 209.5,191.5C 209.5,190.833 209.5,190.167 209.5,189.5C 235.852,175.322 261.852,160.489 287.5,145C 288.332,144.312 288.998,144.479 289.5,145.5C 269.145,166.854 248.812,188.187 228.5,209.5 Z"/></g>
<g><path style="opacity:1" fill="#00a724" d="M 353.5,144.5 C 358.537,148.019 363.87,151.019 369.5,153.5C 369.5,153.833 369.5,154.167 369.5,154.5C 364.221,157.273 359.054,160.273 354,163.5C 353.5,157.175 353.334,150.842 353.5,144.5 Z"/></g>
<g><path style="opacity:1" fill="#003f17" d="M 63.5,163.5 C 64.8164,166.087 65.483,169.087 65.5,172.5C 65.1667,175.5 64.8333,178.5 64.5,181.5C 59.457,178.985 54.7904,175.985 50.5,172.5C 54.688,169.243 59.0214,166.243 63.5,163.5 Z"/></g>
<g><path style="opacity:1" fill="#00a724" d="M 369.5,173.5 C 369.5,179.167 369.5,184.833 369.5,190.5C 364.406,187.923 359.406,185.089 354.5,182C 359.23,178.636 364.23,175.803 369.5,173.5 Z"/></g>
<g><path style="opacity:1" fill="#67c001" d="M 337.5,191.5 C 337.5,191.167 337.5,190.833 337.5,190.5C 342.721,187.638 347.888,184.638 353,181.5C 353.667,187.833 353.667,194.167 353,200.5C 347.888,197.362 342.721,194.362 337.5,191.5 Z"/></g>
<g><path style="opacity:1" fill="#003f17" d="M 81.5,191.5 C 81.5,197.5 81.5,203.5 81.5,209.5C 76.0292,206.597 70.6959,203.43 65.5,200C 70.7287,196.887 76.062,194.053 81.5,191.5 Z"/></g>
<g><path style="opacity:0.941" fill="#fed638" d="M 209.5,191.5 C 215.833,197.5 222.167,203.5 228.5,209.5C 248.812,230.813 269.145,252.146 289.5,273.5C 288.998,274.521 288.332,274.688 287.5,274C 261.852,258.511 235.852,243.678 209.5,229.5C 209.5,216.833 209.5,204.167 209.5,191.5 Z"/></g>
<g><path style="opacity:0.941" fill="#d2a000" d="M 209.5,191.5 C 209.5,204.167 209.5,216.833 209.5,229.5C 183.148,243.678 157.148,258.511 131.5,274C 130.668,274.688 130.002,274.521 129.5,273.5C 149.855,252.146 170.188,230.813 190.5,209.5C 196.833,203.5 203.167,197.5 209.5,191.5 Z"/></g>
<g><path style="opacity:1" fill="#00a724" d="M 337.5,210.5 C 343.095,212.297 348.095,215.13 352.5,219C 347.473,221.845 342.473,224.679 337.5,227.5C 337.5,221.833 337.5,216.167 337.5,210.5 Z"/></g>
<g><path style="opacity:1" fill="#003f17" d="M 49.5,228.5 C 49.5,228.167 49.5,227.833 49.5,227.5C 54.7211,224.638 59.8877,221.638 65,218.5C 65.6667,224.833 65.6667,231.167 65,237.5C 59.9456,234.273 54.779,231.273 49.5,228.5 Z"/></g>
<g><path style="opacity:1" fill="#007527" d="M 337.5,136.5 C 342.833,139.167 348.167,141.833 353.5,144.5C 353.334,150.842 353.5,157.175 354,163.5C 359.054,160.273 364.221,157.273 369.5,154.5C 369.5,160.833 369.5,167.167 369.5,173.5C 364.23,175.803 359.23,178.636 354.5,182C 359.406,185.089 364.406,187.923 369.5,190.5C 369.5,202.833 369.5,215.167 369.5,227.5C 364.279,224.638 359.112,221.638 354,218.5C 353.501,224.491 353.334,230.491 353.5,236.5C 358.502,240.003 363.835,243.003 369.5,245.5C 369.5,251.833 369.5,258.167 369.5,264.5C 364.167,261.5 358.833,258.5 353.5,255.5C 348.167,258.5 342.833,261.5 337.5,264.5C 337.5,252.167 337.5,239.833 337.5,227.5C 342.473,224.679 347.473,221.845 352.5,219C 348.095,215.13 343.095,212.297 337.5,210.5C 337.5,204.167 337.5,197.833 337.5,191.5C 342.721,194.362 347.888,197.362 353,200.5C 353.667,194.167 353.667,187.833 353,181.5C 347.888,184.638 342.721,187.638 337.5,190.5C 337.5,172.5 337.5,154.5 337.5,136.5 Z"/></g>
<g><path style="opacity:1" fill="#69c100" d="M 369.5,227.5 C 369.5,227.833 369.5,228.167 369.5,228.5C 364.167,231.167 358.833,233.833 353.5,236.5C 353.334,230.491 353.501,224.491 354,218.5C 359.112,221.638 364.279,224.638 369.5,227.5 Z"/></g>
<g><path style="opacity:1" fill="#00a923" d="M 369.5,228.5 C 369.5,234.167 369.5,239.833 369.5,245.5C 363.835,243.003 358.502,240.003 353.5,236.5C 358.833,233.833 364.167,231.167 369.5,228.5 Z"/></g>
<g><path style="opacity:1" fill="#68c000" d="M 353.5,255.5 C 358.833,258.5 364.167,261.5 369.5,264.5C 369.5,264.833 369.5,265.167 369.5,265.5C 364.5,268.167 359.5,270.833 354.5,273.5C 353.51,267.69 353.177,261.69 353.5,255.5 Z"/></g>
<g><path style="opacity:1" fill="#003f17" d="M 81.5,264.5 C 81.5,270.5 81.5,276.5 81.5,282.5C 81.5,283.167 81.1667,283.5 80.5,283.5C 70.3659,277.263 60.0325,271.263 49.5,265.5C 49.5,265.167 49.5,264.833 49.5,264.5C 54.7211,261.638 59.8877,258.638 65,255.5C 65.1697,261.528 65.6697,267.528 66.5,273.5C 71.6935,270.74 76.6935,267.74 81.5,264.5 Z"/></g>
<g><path style="opacity:1" fill="#092411" d="M 49.5,265.5 C 60.0325,271.263 70.3659,277.263 80.5,283.5C 75.7015,286.737 70.7015,289.737 65.5,292.5C 60.1667,295.5 54.8333,298.5 49.5,301.5C 49.5,289.5 49.5,277.5 49.5,265.5 Z"/></g>
<g><path style="opacity:1" fill="#00a724" d="M 353.5,255.5 C 353.177,261.69 353.51,267.69 354.5,273.5C 353.871,279.78 353.204,286.114 352.5,292.5C 347.797,289.486 343.13,286.486 338.5,283.5C 342.957,280.099 347.623,276.932 352.5,274C 347.611,270.939 342.611,268.105 337.5,265.5C 337.5,265.167 337.5,264.833 337.5,264.5C 342.833,261.5 348.167,258.5 353.5,255.5 Z"/></g>
<g><path style="opacity:1" fill="#00a724" d="M 369.5,283.5 C 369.5,289.5 369.5,295.5 369.5,301.5C 364.362,298.763 359.362,295.763 354.5,292.5C 359.362,289.237 364.362,286.237 369.5,283.5 Z"/></g>
<g><path style="opacity:0.942" fill="#007427" d="M 97.5,292.5 C 103.165,294.997 108.498,297.997 113.5,301.5C 108.802,304.836 103.802,307.836 98.5,310.5C 97.5041,304.537 97.1707,298.537 97.5,292.5 Z"/></g>
<g><path style="opacity:0.942" fill="#6ac100" d="M 321.5,292.5 C 321.829,298.537 321.496,304.537 320.5,310.5C 315.198,307.836 310.198,304.836 305.5,301.5C 310.502,297.997 315.835,294.997 321.5,292.5 Z"/></g>
<g><path style="opacity:0.942" fill="#007327" d="M 65.5,292.5 C 65.5,298.833 65.5,305.167 65.5,311.5C 60.7415,309.258 56.0749,306.758 51.5,304C 50.6195,303.292 49.9528,302.458 49.5,301.5C 54.8333,298.5 60.1667,295.5 65.5,292.5 Z"/></g>
<g><path style="opacity:0.966" fill="#113e16" d="M 81.5,282.5 C 87.1218,285.472 92.4551,288.805 97.5,292.5C 97.1707,298.537 97.5041,304.537 98.5,310.5C 103.802,307.836 108.802,304.836 113.5,301.5C 129.836,310.332 145.836,319.665 161.5,329.5C 161.333,341.838 161.5,354.171 162,366.5C 166.917,363.625 171.751,360.625 176.5,357.5C 171.833,354.5 167.167,351.5 162.5,348.5C 167.357,344.908 172.357,341.575 177.5,338.5C 188.406,344.072 199.072,350.072 209.5,356.5C 209.5,356.833 209.5,357.167 209.5,357.5C 209.5,363.5 209.5,369.5 209.5,375.5C 209.5,381.833 209.5,388.167 209.5,394.5C 203.835,392.003 198.502,389.003 193.5,385.5C 193.666,379.158 193.5,372.825 193,366.5C 187.513,369.484 182.347,372.817 177.5,376.5C 166.467,370.656 155.801,364.322 145.5,357.5C 129.517,348.528 113.517,339.528 97.5,330.5C 97.8297,324.132 97.4963,317.798 96.5,311.5C 91.2708,314.274 86.2708,317.274 81.5,320.5C 75.835,318.003 70.5016,315.003 65.5,311.5C 65.5,305.167 65.5,298.833 65.5,292.5C 70.7015,289.737 75.7015,286.737 80.5,283.5C 81.1667,283.5 81.5,283.167 81.5,282.5 Z"/></g>
<g><path style="opacity:0.972" fill="#007527" d="M 337.5,265.5 C 342.611,268.105 347.611,270.939 352.5,274C 347.623,276.932 342.957,280.099 338.5,283.5C 343.13,286.486 347.797,289.486 352.5,292.5C 353.204,286.114 353.871,279.78 354.5,273.5C 359.5,270.833 364.5,268.167 369.5,265.5C 369.5,271.5 369.5,277.5 369.5,283.5C 364.362,286.237 359.362,289.237 354.5,292.5C 359.362,295.763 364.362,298.763 369.5,301.5C 359.502,308.837 348.835,315.171 337.5,320.5C 332.279,317.638 327.112,314.638 322,311.5C 321.5,317.825 321.334,324.158 321.5,330.5C 284.139,351.845 246.806,373.179 209.5,394.5C 209.5,388.167 209.5,381.833 209.5,375.5C 214.978,373.263 219.978,370.263 224.5,366.5C 219.638,363.237 214.638,360.237 209.5,357.5C 209.5,357.167 209.5,356.833 209.5,356.5C 230.833,344.167 252.167,331.833 273.5,319.5C 273.5,319.833 273.5,320.167 273.5,320.5C 273.171,326.537 273.504,332.537 274.5,338.5C 279.194,335.821 283.861,333.155 288.5,330.5C 289.491,324.021 289.824,317.354 289.5,310.5C 294.537,306.981 299.87,303.981 305.5,301.5C 310.198,304.836 315.198,307.836 320.5,310.5C 321.496,304.537 321.829,298.537 321.5,292.5C 326.492,289.03 331.659,285.696 337,282.5C 337.499,276.843 337.666,271.176 337.5,265.5 Z"/></g>
<g><path style="opacity:0.939" fill="#00a923" d="M 289.5,310.5 C 289.824,317.354 289.491,324.021 288.5,330.5C 283.709,326.932 278.709,323.598 273.5,320.5C 273.5,320.167 273.5,319.833 273.5,319.5C 278.833,316.5 284.167,313.5 289.5,310.5 Z"/></g>
<g><path style="opacity:0.934" fill="#0a2411" d="M 97.5,330.5 C 91.8782,327.528 86.5449,324.195 81.5,320.5C 86.2708,317.274 91.2708,314.274 96.5,311.5C 97.4963,317.798 97.8297,324.132 97.5,330.5 Z"/></g>
<g><path style="opacity:1" fill="#092511" d="M 128.5,329.5 C 123.701,326.263 118.701,323.263 113.5,320.5C 118.271,317.274 123.271,314.274 128.5,311.5C 129.817,317.654 129.817,323.654 128.5,329.5 Z"/></g>
<g><path style="opacity:0.931" fill="#00a824" d="M 337.5,320.5 C 332.455,324.195 327.122,327.528 321.5,330.5C 321.334,324.158 321.5,317.825 322,311.5C 327.112,314.638 332.279,317.638 337.5,320.5 Z"/></g>
<g><path style="opacity:1" fill="#007227" d="M 113.5,320.5 C 118.701,323.263 123.701,326.263 128.5,329.5C 123.815,332.6 118.981,335.6 114,338.5C 113.501,332.509 113.334,326.509 113.5,320.5 Z"/></g>
<g><path style="opacity:1" fill="#69c100" d="M 273.5,320.5 C 278.709,323.598 283.709,326.932 288.5,330.5C 283.861,333.155 279.194,335.821 274.5,338.5C 273.504,332.537 273.171,326.537 273.5,320.5 Z"/></g>
<g><path style="opacity:1" fill="#00a824" d="M 257.5,330.5 C 262.77,332.803 267.77,335.636 272.5,339C 268,342.085 263.333,344.918 258.5,347.5C 257.505,341.872 257.171,336.206 257.5,330.5 Z"/></g>
<g><path style="opacity:1" fill="#007327" d="M 145.5,357.5 C 145.171,351.463 145.504,345.463 146.5,339.5C 151.543,342.015 156.21,345.015 160.5,348.5C 155.638,351.763 150.638,354.763 145.5,357.5 Z"/></g>
<g><path style="opacity:1" fill="#00a724" d="M 255.5,348.5 C 256.816,351.087 257.483,354.087 257.5,357.5C 257.333,360.5 257.167,363.5 257,366.5C 251.75,363.459 246.583,360.292 241.5,357C 246.397,354.392 251.063,351.559 255.5,348.5 Z"/></g>
<g><path style="opacity:1" fill="#0a2411" d="M 161.5,329.5 C 167.165,331.997 172.498,334.997 177.5,338.5C 172.357,341.575 167.357,344.908 162.5,348.5C 167.167,351.5 171.833,354.5 176.5,357.5C 171.751,360.625 166.917,363.625 162,366.5C 161.5,354.171 161.333,341.838 161.5,329.5 Z"/></g>
<g><path style="opacity:1" fill="#00a724" d="M 209.5,357.5 C 214.638,360.237 219.638,363.237 224.5,366.5C 219.978,370.263 214.978,373.263 209.5,375.5C 209.5,369.5 209.5,363.5 209.5,357.5 Z"/></g>
<g><path style="opacity:0.939" fill="#007427" d="M 193.5,385.5 C 188.167,382.5 182.833,379.5 177.5,376.5C 182.347,372.817 187.513,369.484 193,366.5C 193.5,372.825 193.666,379.158 193.5,385.5 Z"/></g>
</svg>
