<?xml version="1.0" encoding="UTF-8"?>
<!DOCTYPE svg PUBLIC "-//W3C//DTD SVG 1.1//EN" "http://www.w3.org/Graphics/SVG/1.1/DTD/svg11.dtd">
<svg xmlns="http://www.w3.org/2000/svg" version="1.1" width="200px" height="200px" style="shape-rendering:geometricPrecision; text-rendering:geometricPrecision; image-rendering:optimizeQuality; fill-rule:evenodd; clip-rule:evenodd" xmlns:xlink="http://www.w3.org/1999/xlink">
<g><path style="opacity:0.953" fill="#33ff98" d="M 98.5,-0.5 C 99.1667,-0.5 99.8333,-0.5 100.5,-0.5C 118.717,29.7306 137.384,59.7306 156.5,89.5C 156.167,89.8333 155.833,90.1667 155.5,90.5C 137.095,81.6318 118.428,73.2985 99.5,65.5C 80.3898,73.2213 61.3898,81.2213 42.5,89.5C 42.1667,89.1667 41.8333,88.8333 41.5,88.5C 60.0847,59.6622 78.9181,30.9955 98,2.5C 98.4828,1.55198 98.6495,0.551975 98.5,-0.5 Z"/></g>
<g><path style="opacity:0.96" fill="#33ff98" d="M 99.5,75.5 C 119.457,84.476 139.457,93.476 159.5,102.5C 139.596,114.778 119.263,125.945 98.5,136C 78.9471,124.056 58.9471,112.89 38.5,102.5C 58.9836,93.6786 79.3169,84.6786 99.5,75.5 Z"/></g>
<g><path style="opacity:0.941" fill="#33ff98" d="M 41.5,115.5 C 61.0952,126.579 80.5952,137.912 100,149.5C 119.249,138.46 138.415,127.293 157.5,116C 158.332,115.312 158.998,115.479 159.5,116.5C 139.833,143.833 120.167,171.167 100.5,198.5C 80.3949,171.075 60.7283,143.408 41.5,115.5 Z"/></g>
</svg>
