<svg xmlns="http://www.w3.org/2000/svg" viewBox="0 0 1353.92 1353.92" xmlns:v="https://vecta.io/nano"><path d="M1348.73 592.86l-317.58-319.49 206.73 267.59-560.92 682 120.29 120.36a681.16 681.16 0 0 1-120.29 10.64c-373.87 0-677-303.09-677-677s303.09-677 677-677c345.41 0 630.4 258.7 671.79 592.91z" fill="#ff4d05"/><path d="M464.42 540.93H117.01l205.54-267.56 141.87 267.56z" fill="#a7fff1"/><path d="M676.96 273.37L464.42 540.93 322.55 273.37h354.41z" fill="#00e4ef"/><path d="M1031.15 273.37L890.71 540.93 676.96 273.37h354.19z" fill="#5ecbf1"/><path d="M1237.88 540.93H890.71l140.44-267.56 206.73 267.56z" fill="#00e4ef"/><path d="M1237.88 540.93l-560.92 681.98 213.75-681.98h347.17z" fill="#a7fff1"/><path d="M890.71 540.93l-213.75 681.98V540.93h213.75z" fill="#5ecbf1"/><path d="M676.96 1222.91L117.01 540.93h347.41l212.54 681.98z" fill="#8eefea"/><path d="M890.71 540.93H676.96V273.37l213.75 267.56z" fill="#00e4ef"/><path d="M676.96 273.37v267.56H464.42l212.54-267.56z" fill="#a7fff1"/><path d="M676.96 540.93v681.98L574.38 893.76l-14.32-45.96-76.65-245.93L469.12 556l-4.7-15.07h212.54z" fill="#00e4ef"/><path d="M1353.96 676.96c0 332.82-240.18 609.54-556.67 666.31l-120.33-120.31 560.92-682-206.73-267.59 317.58 319.49v.05a683.76 683.76 0 0 1 5.23 84.05z" fill="#c30047"/><path d="M519.89 540.96a207.19 207.19 0 0 1 157.07-72.27V435.9c-79.42.072-153.67 39.4-198.35 105.06q-5 7.35-9.49 15.07c-43.018 74.34-43.109 165.982-.238 240.407S591.071 916.763 676.96 916.85v-32.79c-81.13-.083-154.778-47.419-188.549-121.186S466.937 602.426 519.89 540.96z" fill="#ff6826"/><path d="M917.8 676.38c0 132.81-107.66 240.47-240.47 240.47h-.37v-32.79h.37c114.7 0 207.68-93 207.68-207.68s-93-207.69-207.68-207.69h-.37V435.9h.37c132.81 0 240.47 107.67 240.47 240.48zm-203.17 0a37.3 37.3 0 0 1-37.3 37.3h-.37v-74.61h.37a37.3 37.3 0 0 1 37.3 37.31z" fill="#c30047"/><path d="M676.96 639.07v74.61c-20.365-.333-36.699-16.937-36.699-37.305s16.334-36.972 36.699-37.305z" fill="#ff6826"/><path d="M772.73 661.52H953.8v31.37H772.73z" fill="#c30047"/><path d="M399.19 661.52h181.07v31.37H399.19z" fill="#ff6826"/><path d="M676.96 773.8h16.05v181.07h-16.05z" fill="#c30047"/><path d="M661.64 773.8h15.32v181.07h-15.32z" fill="#ff6826"/><path d="M676.96 398.8h16.05v181.07h-16.05z" fill="#c30047"/><path d="M661.64 398.8h15.32v181.07h-15.32z" fill="#ff6826"/></svg>